<svg width="1000" height="667" viewBox="0 0 1000 667" fill="none" xmlns="http://www.w3.org/2000/svg">
<path d="M952.708 228.136H843.761C839.504 228.136 836.053 224.684 836.053 220.428V110.533C836.053 106.276 839.504 102.825 843.761 102.825H952.708C956.967 102.825 960.417 106.276 960.417 110.533V220.428C960.417 224.684 956.967 228.136 952.708 228.136Z" fill="#1E4FFF"/>
<path d="M861.647 160.557C861.647 140.351 878.028 123.969 898.235 123.969C918.441 123.969 934.823 140.351 934.823 160.557C934.823 180.765 918.441 197.145 898.235 197.145C878.028 197.145 861.647 180.765 861.647 160.557Z" fill="#E6E1F3"/>
<path d="M900.536 121.375V157.963H937.125C937.125 137.755 920.744 121.375 900.536 121.375Z" fill="#F9A71B"/>
<path d="M898.236 123.969C878.028 123.969 861.647 140.351 861.647 160.557C861.647 180.765 878.028 197.145 898.236 197.145C906.075 197.145 913.32 194.659 919.275 190.461L898.236 160.557V123.969Z" fill="#1E254D"/>
<path d="M934.823 160.557H898.236L919.275 190.461C928.669 183.839 934.823 172.925 934.823 160.557Z" fill="white"/>
<path d="M871.337 221.223H852.563V206.033H871.337V221.223Z" fill="#1E254D"/>
<path d="M907.623 221.223H888.848V206.033H907.623V221.223Z" fill="#F9A71B"/>
<path d="M943.908 221.223H925.133V206.033H943.908V221.223Z" fill="white"/>
<path d="M938.476 116.868H859.579V112.227H938.476V116.868Z" fill="#1E254D"/>
<path d="M93.0527 629.146C93.0527 629.146 3.86144 381.361 246.399 326.555C246.399 326.555 267.523 112.328 440.429 112.328C613.335 112.328 678.272 221.097 715.044 286.692C715.044 286.692 1023.67 275.601 889.1 629.875L93.0527 629.146Z" fill="#2D5BFF"/>
<path d="M294.692 226.012H42.277V70.3106H294.692V226.012Z" fill="#3714FF"/>
<path d="M279.579 208.889H57.3912V207.94H279.579V208.889Z" fill="white"/>
<path d="M279.579 188.805H57.3912V187.857H279.579V188.805Z" fill="white"/>
<path d="M279.579 168.721H57.3912V167.772H279.579V168.721Z" fill="white"/>
<path d="M279.579 148.636H57.3912V147.687H279.579V148.636Z" fill="white"/>
<path d="M279.579 128.552H57.3912V127.603H279.579V128.552Z" fill="white"/>
<path d="M279.579 108.468H57.3912V107.519H279.579V108.468Z" fill="white"/>
<path d="M279.579 88.3826H57.3912V87.4345H279.579V88.3826Z" fill="white"/>
<path d="M86.0552 208.416H71.724V174.521H86.0552V208.416Z" fill="white"/>
<path d="M86.0552 174.521H71.724V151.124H86.0552V174.521Z" fill="white"/>
<path d="M86.0552 151.124H71.724V128.079H86.0552V151.124Z" fill="white"/>
<path d="M114.719 208.416H100.388V182.637H114.719V208.416Z" fill="white"/>
<path d="M114.719 155.451H100.388V107.993H114.719V155.451Z" fill="white"/>
<path d="M143.384 208.416H129.052V177.361H143.384V208.416Z" fill="white"/>
<path d="M143.384 177.361H129.052V160.344H143.384V177.361Z" fill="white"/>
<path d="M143.384 161.263H129.052V148.163H143.384V161.263Z" fill="white"/>
<path d="M172.048 208.416H157.716V185.997H172.048V208.416Z" fill="white"/>
<path d="M172.048 185.997H157.716V162.957H172.048V185.997Z" fill="white"/>
<path d="M172.048 162.957H157.716V143.277H172.048V162.957Z" fill="white"/>
<path d="M200.711 208.416H186.38V182.637H200.711V208.416Z" fill="white"/>
<path d="M200.711 182.637H186.38V158.168H200.711V182.637Z" fill="white"/>
<path d="M200.711 158.537H186.38V128.077H200.711V158.537Z" fill="white"/>
<path d="M229.376 208.416H215.044V192.889H229.376V208.416Z" fill="white"/>
<path d="M229.376 192.889H215.044V140.628H229.376V192.889Z" fill="white"/>
<path d="M229.376 140.628H215.044V87.9092H229.376V140.628Z" fill="white"/>
<path d="M258.039 208.416H243.708V163.58H258.039V208.416Z" fill="white"/>
<path d="M258.039 163.58H243.708V148.133H258.039V163.58Z" fill="white"/>
<path d="M258.039 148.104H243.708V128.429H258.039V148.104Z" fill="white"/>
<path d="M114.719 182.637H100.388V143.277H114.719V182.637Z" fill="white"/>
<path d="M348.083 40.556C352.479 38.124 358.012 39.7159 360.444 44.1119C362.876 48.5079 361.283 54.0426 356.888 56.4733C352.492 58.9053 346.957 57.3133 344.527 52.9173C342.095 48.5213 343.687 42.9866 348.083 40.556ZM331.411 55.9627L334.859 62.1946L341.008 60.86C341.587 61.3907 342.197 61.8759 342.837 62.3146L342.908 68.6093L349.752 70.5786L353.157 65.284C353.932 65.252 354.709 65.1653 355.481 65.024L359.981 69.4226L366.213 65.9759L364.877 59.8267C365.408 59.248 365.893 58.636 366.333 57.9973L372.628 57.9253L374.597 51.0813L369.303 47.6759C369.269 46.9013 369.184 46.1253 369.041 45.352L373.441 40.852L369.995 34.6213L363.844 35.956C363.265 35.4253 362.653 34.94 362.015 34.5L361.944 28.2053L355.1 26.2373L351.695 31.5306C350.919 31.564 350.143 31.6493 349.371 31.792L344.871 27.3933L338.639 30.8399L339.973 36.9893C339.444 37.568 338.959 38.18 338.519 38.8187L332.224 38.8907L330.255 45.7333L335.549 49.1386C335.583 49.9146 335.668 50.6907 335.809 51.4627L331.411 55.9627Z" fill="#E6E1F3"/>
<path d="M402.777 54.0266C405.887 52.3066 409.801 53.4332 411.521 56.5425C413.24 59.6505 412.113 63.5652 409.005 65.2838C405.896 67.0052 401.983 65.8785 400.263 62.7692C398.543 59.6612 399.669 55.7466 402.777 54.0266ZM390.987 64.9225L393.424 69.3305L397.775 68.3865C398.184 68.7612 398.616 69.1052 399.068 69.4159L399.119 73.8678L403.959 75.2599L406.367 71.5159C406.916 71.4932 407.464 71.4319 408.011 71.3305L411.193 74.4425L415.6 72.0052L414.656 67.6559C415.031 67.2465 415.375 66.8145 415.685 66.3612L420.137 66.3105L421.529 61.4719L417.785 59.0626C417.763 58.5146 417.701 57.9652 417.601 57.4185L420.713 54.2372L418.275 49.8292L413.925 50.7732C413.516 50.3985 413.084 50.0545 412.632 49.7439L412.581 45.2919L407.741 43.8999L405.332 47.6439C404.784 47.6665 404.235 47.7279 403.689 47.8279L400.507 44.7159L396.099 47.1546L397.044 51.5052C396.668 51.9132 396.325 52.3465 396.013 52.7972L391.561 52.8492L390.169 57.6879L393.913 60.0972C393.937 60.6452 393.999 61.1945 394.099 61.7412L390.987 64.9225Z" fill="#E6E1F3"/>
<path d="M586.563 283.648C587.575 279.217 591.987 276.445 596.417 277.459C600.849 278.472 603.62 282.884 602.607 287.315C601.593 291.745 597.181 294.516 592.751 293.504C588.32 292.491 585.549 288.079 586.563 283.648ZM586.892 304.184L593.173 305.619L595.983 300.667C596.691 300.597 597.387 300.477 598.069 300.312L602.356 304.061L607.812 300.636L606.297 295.145C606.743 294.603 607.152 294.028 607.524 293.421L613.204 293.041L614.639 286.76L609.688 283.949C609.617 283.243 609.497 282.547 609.332 281.864L613.083 277.577L609.655 272.12L604.165 273.636C603.623 273.191 603.047 272.78 602.441 272.411L602.061 266.729L595.78 265.293L592.971 270.245C592.263 270.316 591.567 270.435 590.884 270.601L586.597 266.851L581.14 270.277L582.656 275.768C582.211 276.311 581.8 276.885 581.429 277.492L575.749 277.872L574.313 284.153L579.265 286.964C579.336 287.669 579.456 288.367 579.621 289.049L575.871 293.336L579.299 298.792L584.788 297.277C585.331 297.723 585.907 298.133 586.512 298.503L586.892 304.184Z" fill="white"/>
<path d="M628.641 254.896C629.359 251.763 632.479 249.803 635.613 250.519C638.747 251.235 640.707 254.356 639.991 257.489C639.275 260.623 636.153 262.583 633.02 261.867C629.887 261.151 627.925 258.029 628.641 254.896ZM628.876 269.42L633.319 270.436L635.305 266.933C635.805 266.884 636.299 266.8 636.781 266.683L639.812 269.333L643.672 266.911L642.6 263.028C642.916 262.644 643.205 262.237 643.468 261.808L647.485 261.54L648.5 257.097L644.997 255.109C644.948 254.609 644.864 254.117 644.748 253.635L647.399 250.603L644.975 246.744L641.092 247.815C640.708 247.5 640.303 247.211 639.872 246.948L639.604 242.931L635.161 241.916L633.175 245.417C632.675 245.467 632.183 245.552 631.699 245.668L628.668 243.017L624.808 245.44L625.88 249.323C625.565 249.707 625.275 250.113 625.013 250.543L620.995 250.811L619.98 255.253L623.481 257.241C623.531 257.741 623.616 258.233 623.733 258.716L621.083 261.748L623.505 265.608L627.388 264.536C627.772 264.851 628.179 265.14 628.607 265.403L628.876 269.42Z" fill="white"/>
<path d="M402.193 220.6H334.093V173.956H402.193V220.6Z" fill="white"/>
<path d="M371.36 195.656L402.193 173.956L368.143 196.647L334.093 173.956L364.927 195.656L334.093 220.6L365.811 196.277L367.847 197.711L368.143 197.919L368.44 197.711L370.475 196.277L402.193 220.6L371.36 195.656Z" fill="#9288CC"/>
<path d="M40.1593 643.643H917.557V629.025H40.1593V643.643Z" fill="#141A2B"/>
<path fill-rule="evenodd" clip-rule="evenodd" d="M87.7526 500.803C86.5229 497.819 84.588 491.031 78.7844 490.319C77.1349 493.136 77.7234 496.864 75.6036 499.997C74.1473 502.147 71.2442 505.101 68.8781 503.805C67.6854 501.251 71.6817 497.123 73.2937 494.775C76.7401 489.752 80.8854 480.644 74.1874 476.389C65.6844 470.991 67.1718 472.985 64.9161 473.813C65.1776 472.105 65.1989 469.9 64.5084 468.883C63.7588 467.777 62.3 466.349 60.8156 465.531C59.1844 464.631 57.238 463.667 55.4041 463.288C53.1937 462.824 52.25 463.1 52.3464 465.697C52.4729 469.103 53.2193 471.885 53.6666 474.917C53.9844 477.052 55.0322 482.1 53.5281 484.333C52.4426 485.944 50.0306 484.983 48.7978 483.509C46.626 480.92 48.0854 473.361 47.877 469.587C47.6745 465.996 46.2317 462.407 42.2182 463.953C41.3854 464.269 40.8917 464.551 40.0942 464.876C35.1136 466.889 36.2421 464.691 32.739 464.111C31.7688 465.512 32.8306 467.887 32.1584 470.332C31.6114 472.332 29.8021 474.856 28.675 476.655C20.1401 490.285 30.1292 488.944 41.6672 494.871C46.425 497.315 47.1374 502.711 38.7161 499.336C32.6306 496.903 31.2234 492.837 28.9713 491.317C24.6536 488.416 24.8172 498.472 24.8281 500.845C24.8432 503.085 25.3948 504.521 27.726 505.687C32.1666 507.905 38.5568 508.028 43.9432 508.885C49.5745 509.776 46.4265 514.201 39.6172 513.532C36.3901 513.212 35.0317 512.339 32.4344 511.692C29.0854 510.855 29.4432 513.685 30.1697 515.285C32.1021 519.528 31.786 520.44 34.3026 524.403C36.701 528.173 39.7802 532.575 45.5864 534.024C50.6412 535.283 55.8781 533.76 58.8276 530.864C63.4213 526.361 61.3161 521.917 61.127 518.324C60.9166 514.388 66.124 520.025 68.4478 521.161C70.5224 522.173 74.0973 522.615 76.276 522.729C79.7136 522.919 85.8489 519.331 88.0906 515.412C91.2374 509.895 89.7062 505.557 87.7526 500.803ZM61.3484 497.529C59.8521 495.629 62.303 490.215 63.1516 487.659C64.7469 482.876 64.6448 482.205 65.05 477.732C65.5546 478.443 66.3193 481.259 66.6276 482.34C68.3693 488.323 64.1844 497.644 61.3484 497.529Z" fill="#F9A71B"/>
<path fill-rule="evenodd" clip-rule="evenodd" d="M115.573 548.261C117.432 547.659 121.62 546.807 122.321 543.337C120.698 542.209 118.419 542.391 116.626 540.965C115.396 539.984 113.747 538.093 114.641 536.726C116.239 536.125 118.546 538.731 119.887 539.813C122.758 542.129 128.064 545.057 130.947 541.212C134.603 536.329 133.33 537.136 132.934 535.735C133.953 535.972 135.284 536.088 135.931 535.719C136.633 535.317 137.563 534.504 138.127 533.645C138.747 532.703 139.419 531.573 139.733 530.483C140.116 529.169 139.995 528.587 138.421 528.524C136.36 528.441 134.644 528.763 132.794 528.891C131.49 528.983 128.393 529.38 127.115 528.367C126.193 527.637 126.886 526.225 127.833 525.551C129.497 524.36 133.993 525.593 136.281 525.644C138.46 525.69 140.695 524.987 139.948 522.491C139.795 521.972 139.648 521.661 139.489 521.165C138.507 518.064 139.781 518.849 140.296 516.76C139.495 516.108 138.011 516.639 136.567 516.119C135.384 515.695 133.945 514.485 132.911 513.72C125.08 507.931 125.423 514.025 121.306 520.715C119.609 523.472 116.317 523.651 118.748 518.724C120.502 515.164 123.022 514.504 124.044 513.215C125.998 510.744 119.919 510.372 118.486 510.268C117.132 510.173 116.24 510.438 115.427 511.792C113.88 514.369 113.508 518.221 112.738 521.433C111.937 524.792 109.413 522.685 110.135 518.604C110.479 516.672 111.07 515.892 111.581 514.355C112.243 512.371 110.518 512.455 109.518 512.819C106.865 513.788 106.33 513.555 103.82 514.888C101.431 516.16 98.6302 517.813 97.4838 521.252C96.4874 524.247 97.163 527.479 98.7734 529.394C101.277 532.377 104.059 531.315 106.237 531.368C108.624 531.424 104.977 534.305 104.182 535.656C103.475 536.861 103.041 538.998 102.87 540.309C102.595 542.374 104.475 546.248 106.736 547.784C109.92 549.941 112.61 549.22 115.573 548.261ZM118.782 532.472C119.999 531.659 123.154 533.391 124.658 534.024C127.471 535.209 127.88 535.179 130.563 535.633C130.109 535.904 128.373 536.235 127.706 536.369C124.013 537.141 118.58 534.18 118.782 532.472Z" fill="#F9A71B"/>
<path fill-rule="evenodd" clip-rule="evenodd" d="M121.335 500.373C122.581 498.455 125.764 494.588 123.841 490.915C121.532 491.085 119.592 492.932 116.909 492.957C115.066 492.972 112.172 492.469 111.975 490.564C112.986 488.84 117.007 489.508 119.027 489.504C123.348 489.492 130.336 488.243 130.122 482.616C129.847 475.476 129.281 477.149 127.889 476.165C128.992 475.631 130.289 474.753 130.604 473.941C130.947 473.057 131.193 471.632 131.073 470.433C130.941 469.119 130.719 467.593 130.202 466.371C129.581 464.893 129.04 464.455 127.562 465.556C125.625 467.003 124.302 468.56 122.713 470.043C121.593 471.088 119.068 473.735 117.158 473.756C115.781 473.771 115.37 471.975 115.733 470.663C116.37 468.352 121.37 466.157 123.49 464.515C125.505 462.949 127.019 460.66 124.499 458.94C123.979 458.583 123.616 458.408 123.105 458.073C119.922 455.976 121.661 455.749 120.588 453.471C119.379 453.468 118.42 455.044 116.722 455.639C115.333 456.124 113.131 456.084 111.627 456.152C100.229 456.661 105.037 461.953 106.226 471.079C106.718 474.84 103.854 477.431 102.431 471.153C101.399 466.621 103.206 464.16 103.185 462.233C103.14 458.543 97.3349 462.692 95.9527 463.653C94.6511 464.565 94.036 465.467 94.2942 467.297C94.789 470.783 97.2917 474.564 98.9615 478.053C100.71 481.7 96.8584 481.645 94.5052 477.401C93.3912 475.388 93.3547 474.243 92.6855 472.465C91.8251 470.173 90.3156 471.523 89.6751 472.591C87.976 475.429 87.3161 475.612 86.0177 478.679C84.7833 481.597 83.4536 485.169 84.9469 489.143C86.2484 492.601 89.2478 495.045 92.1276 495.6C96.6068 496.469 98.3541 493.448 100.375 491.891C102.589 490.181 101.396 495.492 101.669 497.307C101.915 498.925 103.097 501.192 103.909 502.509C105.182 504.592 109.749 506.729 112.942 506.459C117.43 506.073 119.346 503.431 121.335 500.373ZM112.605 483.639C113.113 482 117.26 481.251 119.095 480.715C122.53 479.719 122.88 479.389 125.656 477.823C125.444 478.404 124.107 479.985 123.601 480.601C120.81 484.028 113.68 485.343 112.605 483.639Z" fill="#F9A71B"/>
<path d="M92.4391 547.615C92.5953 527.403 97.9891 507.431 108.031 489.888C109.24 487.776 105.979 485.872 104.771 487.983C94.4036 506.093 88.8245 526.748 88.6636 547.615C88.6448 550.045 92.4193 550.047 92.4391 547.615Z" fill="#F9A71B"/>
<path d="M61.3354 519.271C67.7844 521.536 73.2136 525.844 77.686 530.936C82.3656 536.265 86.6578 542.707 88.814 549.501C89.5464 551.808 93.1926 550.822 92.4552 548.497C90.0932 541.055 85.4812 534.103 80.3557 528.267C75.4401 522.669 69.4046 518.112 62.339 515.631C60.0417 514.823 59.0546 518.471 61.3354 519.271Z" fill="#F9A71B"/>
<path d="M91.8719 545.395C96.6203 539.224 102.98 534.397 110.094 531.276C111.028 530.865 111.243 529.5 110.771 528.693C110.208 527.729 109.125 527.604 108.188 528.016C100.442 531.416 93.7609 536.798 88.6115 543.488C87.9891 544.297 88.4875 545.603 89.2891 546.072C90.2625 546.64 91.2473 546.204 91.8719 545.395Z" fill="#F9A71B"/>
<path d="M99.586 629.643H85.401C76.2584 629.643 68.5245 622.884 67.3 613.824L59.0942 553.101H124.258L117.746 613.341C116.743 622.614 108.914 629.643 99.586 629.643Z" fill="#F9A71B"/>
<path d="M124.778 558.776H59.6093C58.1823 558.776 57.026 557.619 57.026 556.193V552.049C57.026 550.624 58.1823 549.467 59.6093 549.467H124.778C126.205 549.467 127.361 550.624 127.361 552.049V556.193C127.361 557.62 126.205 558.776 124.778 558.776Z" fill="#EC8D13"/>
<path d="M80.6776 629.025H80.1609C73.1926 627.161 67.7896 621.271 66.7833 613.824L59.3427 558.762C59.4303 558.772 59.5193 558.776 59.6093 558.776H59.8615L67.3 613.824C68.3068 621.271 73.7093 627.161 80.6776 629.025Z" fill="#ECEAEA"/>
<path d="M99.0688 629.643H84.8844C83.2552 629.643 81.6713 629.428 80.1609 629.025H80.6776C82.188 629.428 83.7724 629.643 85.401 629.643H99.0688Z" fill="#151A29"/>
<path d="M99.0688 629.643H85.401C83.7724 629.643 82.188 629.428 80.6776 629.025C73.7093 627.161 68.3068 621.271 67.3 613.824L59.8615 558.776H77.7084L85.1469 613.824C86.2765 622.184 92.953 628.572 101.161 629.51C100.473 629.589 99.777 629.643 99.0688 629.643Z" fill="#E79918"/>
<path d="M57.0265 556.253C56.6964 555.614 56.5093 554.891 56.5093 554.121C56.5093 553.35 56.6959 552.625 57.0271 551.985C57.0265 552.007 57.026 552.028 57.026 552.049V556.193C57.026 556.213 57.0265 556.233 57.0265 556.253Z" fill="#ECEAEA"/>
<path d="M77.7084 558.776H59.6093C59.5193 558.776 59.4303 558.772 59.3427 558.762L59.2907 558.376C58.3151 557.947 57.5145 557.193 57.0265 556.253C57.0265 556.233 57.026 556.213 57.026 556.193V552.049C57.026 552.028 57.0265 552.007 57.0271 551.985C57.8011 550.489 59.3625 549.467 61.1636 549.467H79.5276C76.9563 549.467 74.8724 551.55 74.8724 554.121C74.8724 556.024 76.0183 557.655 77.6541 558.376L77.7084 558.776Z" fill="#D68219"/>
<path fill-rule="evenodd" clip-rule="evenodd" d="M886.499 500.803C884.545 505.557 883.015 509.895 886.161 515.412C888.404 519.331 894.537 522.919 897.975 522.729C900.155 522.615 903.729 522.173 905.804 521.161C908.129 520.025 913.335 514.388 913.125 518.324C912.936 521.917 910.831 526.361 915.424 530.864C918.373 533.76 923.611 535.283 928.665 534.024C934.472 532.575 937.551 528.173 939.949 524.403C942.467 520.44 942.149 519.528 944.083 515.285C944.808 513.685 945.167 510.855 941.817 511.692C939.22 512.339 937.861 513.212 934.636 513.532C927.825 514.201 924.677 509.776 930.308 508.885C935.695 508.028 942.085 507.905 946.527 505.687C948.857 504.521 949.409 503.085 949.424 500.845C949.435 498.472 949.597 488.416 945.281 491.317C943.028 492.837 941.621 496.903 935.535 499.336C927.115 502.711 927.827 497.315 932.584 494.871C944.123 488.944 954.112 490.285 945.577 476.655C944.451 474.856 942.64 472.332 942.093 470.332C941.421 467.887 942.483 465.512 941.513 464.111C938.009 464.691 939.139 466.889 934.157 464.876C933.361 464.551 932.865 464.269 932.033 463.953C928.02 462.407 926.577 465.996 926.375 469.587C926.167 473.361 927.625 480.92 925.453 483.509C924.221 484.983 921.809 485.944 920.724 484.333C919.22 482.1 920.268 477.052 920.585 474.917C921.032 471.885 921.779 469.103 921.907 465.697C922.001 463.1 921.059 462.824 918.848 463.288C917.015 463.667 915.068 464.631 913.436 465.531C911.952 466.349 910.492 467.777 909.744 468.883C909.053 469.9 909.075 472.105 909.336 473.813C907.08 472.985 908.568 470.991 900.065 476.389C893.367 480.644 897.512 489.752 900.959 494.775C902.571 497.123 906.567 501.251 905.373 503.805C903.008 505.101 900.104 502.147 898.648 499.997C896.528 496.864 897.117 493.136 895.468 490.319C889.664 491.031 887.729 497.819 886.499 500.803ZM912.904 497.529C910.068 497.644 905.883 488.323 907.624 482.34C907.932 481.259 908.696 478.443 909.201 477.732C909.607 482.205 909.505 482.876 911.1 487.659C911.948 490.215 914.4 495.629 912.904 497.529Z" fill="#F9A71B"/>
<path fill-rule="evenodd" clip-rule="evenodd" d="M858.679 548.261C861.64 549.22 864.331 549.941 867.516 547.784C869.777 546.248 871.656 542.374 871.381 540.309C871.211 538.998 870.777 536.861 870.069 535.656C869.275 534.305 865.628 531.424 868.015 531.368C870.193 531.315 872.975 532.377 875.477 529.394C877.089 527.479 877.764 524.247 876.768 521.252C875.621 517.813 872.82 516.16 870.432 514.888C867.921 513.555 867.387 513.788 864.735 512.819C863.735 512.455 862.008 512.371 862.671 514.355C863.183 515.892 863.773 516.672 864.117 518.604C864.839 522.685 862.315 524.792 861.513 521.433C860.744 518.221 860.371 514.369 858.824 511.792C858.012 510.438 857.12 510.173 855.767 510.268C854.333 510.372 848.253 510.744 850.207 513.215C851.231 514.504 853.751 515.164 855.504 518.724C857.935 523.651 854.643 523.472 852.945 520.715C848.828 514.025 849.172 507.931 841.34 513.72C840.305 514.485 838.868 515.695 837.687 516.119C836.241 516.639 834.756 516.108 833.957 516.76C834.471 518.849 835.745 518.064 834.763 521.165C834.603 521.661 834.457 521.972 834.304 522.491C833.559 524.987 835.793 525.69 837.971 525.644C840.259 525.593 844.753 524.36 846.419 525.551C847.365 526.225 848.059 527.637 847.137 528.367C845.86 529.38 842.763 528.983 841.459 528.891C839.607 528.763 837.892 528.441 835.831 528.524C834.257 528.587 834.136 529.169 834.519 530.483C834.832 531.573 835.505 532.703 836.125 533.645C836.689 534.504 837.619 535.317 838.321 535.719C838.968 536.088 840.299 535.972 841.317 535.735C840.923 537.136 839.648 536.329 843.305 541.212C846.188 545.057 851.493 542.129 854.364 539.813C855.707 538.731 858.013 536.125 859.611 536.726C860.504 538.093 858.856 539.984 857.627 540.965C855.833 542.391 853.553 542.209 851.929 543.337C852.632 546.807 856.82 547.659 858.679 548.261ZM855.471 532.472C855.672 534.18 850.239 537.141 846.545 536.369C845.879 536.235 844.141 535.904 843.689 535.633C846.372 535.179 846.781 535.209 849.595 534.024C851.099 533.391 854.252 531.659 855.471 532.472Z" fill="#F9A71B"/>
<path fill-rule="evenodd" clip-rule="evenodd" d="M852.917 500.373C854.907 503.431 856.821 506.073 861.309 506.459C864.503 506.729 869.069 504.592 870.344 502.509C871.155 501.192 872.337 498.925 872.583 497.307C872.856 495.492 871.663 490.181 873.876 491.891C875.899 493.448 877.644 496.469 882.124 495.6C885.004 495.045 888.003 492.601 889.305 489.143C890.799 485.169 889.469 481.597 888.235 478.679C886.935 475.612 886.276 475.429 884.577 472.591C883.936 471.523 882.427 470.173 881.567 472.465C880.897 474.243 880.861 475.388 879.748 477.401C877.393 481.645 873.541 481.7 875.291 478.053C876.96 474.564 879.464 470.783 879.959 467.297C880.216 465.467 879.6 464.565 878.3 463.653C876.917 462.692 871.112 458.543 871.067 462.233C871.047 464.16 872.853 466.621 871.82 471.153C870.399 477.431 867.535 474.84 868.027 471.079C869.215 461.953 874.023 456.661 862.625 456.152C861.121 456.084 858.919 456.124 857.529 455.639C855.832 455.044 854.873 453.468 853.664 453.471C852.591 455.749 854.329 455.976 851.147 458.073C850.636 458.408 850.273 458.583 849.752 458.94C847.232 460.66 848.747 462.949 850.761 464.515C852.881 466.157 857.881 468.352 858.519 470.663C858.881 471.975 858.472 473.771 857.093 473.756C855.184 473.735 852.659 471.088 851.54 470.043C849.951 468.56 848.627 467.003 846.691 465.556C845.212 464.455 844.671 464.893 844.049 466.371C843.532 467.593 843.311 469.119 843.18 470.433C843.059 471.632 843.305 473.057 843.648 473.941C843.964 474.753 845.259 475.631 846.363 476.165C844.971 477.149 844.405 475.476 844.131 482.616C843.917 488.243 850.904 489.492 855.224 489.504C857.245 489.508 861.265 488.84 862.276 490.564C862.081 492.469 859.185 492.972 857.344 492.957C854.66 492.932 852.72 491.085 850.411 490.915C848.488 494.588 851.671 498.455 852.917 500.373ZM861.647 483.639C860.572 485.343 853.443 484.028 850.651 480.601C850.144 479.985 848.808 478.404 848.596 477.823C851.372 479.389 851.721 479.719 855.157 480.715C856.992 481.251 861.139 482 861.647 483.639Z" fill="#F9A71B"/>
<path d="M881.813 547.615C881.657 527.403 876.263 507.431 866.22 489.888C865.012 487.776 868.272 485.872 869.481 487.983C879.849 506.093 885.427 526.748 885.588 547.615C885.608 550.045 881.832 550.047 881.813 547.615Z" fill="#F9A71B"/>
<path d="M912.917 519.271C906.468 521.536 901.039 525.844 896.565 530.936C891.887 536.265 887.593 542.707 885.437 549.501C884.705 551.808 881.059 550.822 881.797 548.497C884.159 541.055 888.771 534.103 893.896 528.267C898.811 522.669 904.847 518.112 911.913 515.631C914.209 514.823 915.197 518.471 912.917 519.271Z" fill="#F9A71B"/>
<path d="M882.38 545.395C877.632 539.224 871.272 534.397 864.157 531.276C863.224 530.865 863.008 529.5 863.48 528.693C864.044 527.729 865.127 527.604 866.064 528.016C873.811 531.416 880.491 536.798 885.64 543.488C886.263 544.297 885.764 545.603 884.964 546.072C883.989 546.64 883.004 546.204 882.38 545.395Z" fill="#F9A71B"/>
<path d="M874.665 629.643H888.851C897.993 629.643 905.727 622.884 906.952 613.824L915.157 553.101H849.993L856.505 613.341C857.508 622.614 865.337 629.643 874.665 629.643Z" fill="#F9A71B"/>
<path d="M849.473 558.776H914.643C916.069 558.776 917.227 557.619 917.227 556.193V552.049C917.227 550.624 916.069 549.467 914.643 549.467H849.473C848.047 549.467 846.891 550.624 846.891 552.049V556.193C846.891 557.62 848.047 558.776 849.473 558.776Z" fill="#EC8D13"/>
<path d="M894.091 629.025H893.573C900.543 627.161 905.945 621.271 906.952 613.824L914.391 558.776H914.643C914.732 558.776 914.821 558.772 914.908 558.762L907.468 613.824C906.463 621.271 901.06 627.161 894.091 629.025Z" fill="#ECEAEA"/>
<path d="M889.367 629.643H875.183H888.851C890.479 629.643 892.063 629.428 893.573 629.025H894.091C892.58 629.428 890.996 629.643 889.367 629.643Z" fill="#151A29"/>
<path d="M917.225 556.252C917.227 556.232 917.227 556.212 917.227 556.193V552.049C917.227 552.028 917.227 552.007 917.225 551.985C917.556 552.625 917.744 553.352 917.744 554.121C917.744 554.889 917.556 555.614 917.225 556.252Z" fill="#ECEAEA"/>
<path d="M888.851 629.643H875.183C874.475 629.643 873.779 629.589 873.091 629.51C881.299 628.572 887.976 622.184 889.105 613.824L896.544 558.776H914.391L906.952 613.824C905.945 621.271 900.543 627.161 893.573 629.025C892.063 629.428 890.479 629.643 888.851 629.643Z" fill="#E79918"/>
<path d="M914.643 558.776H896.544L896.597 558.376C898.235 557.655 899.379 556.024 899.379 554.121C899.379 551.55 897.296 549.467 894.724 549.467H913.088C914.889 549.467 916.452 550.489 917.225 551.985C917.227 552.007 917.227 552.028 917.227 552.049V556.193C917.227 556.212 917.227 556.232 917.225 556.252C916.737 557.193 915.936 557.947 914.961 558.376L914.908 558.762C914.821 558.772 914.732 558.776 914.643 558.776Z" fill="#D68219"/>
<path d="M729.303 92.5865C729.309 93.0318 729.677 93.3879 730.124 93.3799C730.569 93.3719 730.924 93.0052 730.917 92.5599C730.911 92.1132 730.541 91.7572 730.096 91.7652C729.649 91.7732 729.296 92.1398 729.303 92.5865Z" fill="#F9A71B"/>
<path d="M709.625 79.0132C709.856 92.6919 721.131 103.593 734.808 103.364C748.487 103.133 759.388 91.8586 759.157 78.1799C758.928 64.5026 747.652 53.5999 733.975 53.8305C720.297 54.0599 709.395 65.3359 709.625 79.0132Z" fill="#F9A71B"/>
<path d="M714.041 79.7519C714.252 79.9573 714.543 80.0812 714.861 80.0759C715.496 80.0652 716.001 79.5412 715.991 78.9065C715.877 72.1652 719.453 65.9093 725.323 62.5773C725.876 62.2639 726.071 61.5626 725.756 61.0092C725.439 60.4572 724.739 60.2639 724.189 60.5773C717.584 64.3239 713.563 71.3612 713.692 78.9452C713.696 79.2626 713.829 79.5479 714.041 79.7519Z" fill="white"/>
<path d="M728.359 60.5759C728.641 60.8519 729.057 60.9719 729.465 60.8599C730.961 60.4453 732.515 60.2226 734.083 60.1946C734.717 60.1852 735.224 59.6613 735.212 59.0266C735.201 58.3906 734.679 57.8853 734.043 57.8959C732.281 57.9266 730.533 58.1772 728.852 58.6425C728.24 58.8119 727.88 59.4453 728.049 60.0573C728.107 60.2626 728.215 60.4385 728.359 60.5759Z" fill="white"/>
<path d="M741.773 51.9812L748.503 27.5879C749.015 27.7292 749.523 27.8772 750.028 28.0332L742.56 52.2118C742.3 52.1305 742.037 52.0545 741.773 51.9812ZM715.861 29.0212C716.355 28.8385 716.849 28.6612 717.347 28.4905L725.5 52.4465C725.233 52.5372 724.971 52.6306 724.708 52.7292L715.861 29.0212ZM755.992 61.3972L775.776 45.6198C776.101 46.0278 776.421 46.4426 776.737 46.8599L756.505 62.0612C756.339 61.8385 756.167 61.6159 755.992 61.3972ZM690.277 49.3692C690.571 48.9265 690.871 48.4892 691.177 48.0572L711.827 62.6825C711.669 62.9039 711.517 63.1278 711.367 63.3532L690.277 49.3692ZM761.997 78.1319C761.993 77.8759 761.985 77.6212 761.973 77.3665L787.252 76.2212C787.275 76.7145 787.291 77.2092 787.3 77.7052V77.7838L761.997 78.1319ZM681.484 79.4879L681.481 79.3305L706.783 78.9052L706.785 79.0612C706.791 79.3399 706.8 79.6159 706.812 79.8932L681.535 81.0639C681.511 80.5412 681.493 80.0145 681.484 79.4879ZM756.987 94.4665C757.143 94.2452 757.297 94.0212 757.447 93.7945L778.563 107.737C778.269 108.181 777.972 108.619 777.665 109.053L756.987 94.4665ZM692.103 110.406L712.316 95.1825C712.481 95.4039 712.652 95.6225 712.824 95.8385L693.072 111.655C692.743 111.244 692.42 110.828 692.103 110.406Z" fill="#F9A71B"/>
<path d="M725.997 108.793L743.799 108.493L743.56 94.3118L725.757 94.6118L725.997 108.793Z" fill="#F9A71B"/>
<path d="M739.035 108.573L740.187 108.555L739.853 88.7626L738.701 88.7813L739.035 108.573Z" fill="white"/>
<path d="M729.409 108.736L730.559 108.716L730.225 88.9239L729.076 88.9425L729.409 108.736Z" fill="white"/>
<path d="M724.507 89.5959L744.64 89.2559L744.621 88.1066L724.488 88.4452L724.507 89.5959Z" fill="white"/>
<path d="M739.251 88.772L740.401 88.7533C740.371 86.9613 741.051 85.808 741.531 85.8C742.012 85.792 742.731 86.9226 742.76 88.7133L743.911 88.6933C743.871 86.3653 742.84 84.628 741.512 84.6493C740.184 84.672 739.212 86.444 739.251 88.772Z" fill="white"/>
<path d="M735.744 88.8306L736.893 88.8119C736.863 87.0212 737.543 85.8666 738.024 85.8586C738.504 85.8492 739.221 86.9812 739.251 88.7719L740.401 88.7532C740.361 86.4239 739.332 84.6852 738.004 84.7079C736.676 84.7306 735.704 86.5026 735.744 88.8306Z" fill="white"/>
<path d="M732.235 88.8906L733.385 88.8706C733.356 87.0799 734.033 85.9253 734.516 85.9173C734.996 85.9093 735.713 87.0399 735.744 88.8306L736.893 88.8119C736.855 86.4839 735.824 84.7452 734.496 84.7679C733.168 84.7892 732.196 86.5626 732.235 88.8906Z" fill="white"/>
<path d="M728.727 88.9492L729.876 88.9305C729.847 87.1385 730.527 85.9852 731.007 85.9758C731.487 85.9692 732.204 87.0999 732.235 88.8906L733.385 88.8705C733.347 86.5425 732.315 84.8039 730.987 84.8266C729.659 84.8492 728.688 86.6212 728.727 88.9492Z" fill="white"/>
<path d="M725.217 89.0079L726.368 88.9892C726.339 87.1986 727.017 86.0439 727.497 86.0359C727.979 86.0279 728.696 87.1586 728.727 88.9493L729.876 88.9306C729.837 86.6026 728.805 84.8639 727.479 84.8853C726.151 84.9079 725.179 86.6799 725.217 89.0079Z" fill="white"/>
<path d="M724.695 111.543L745.217 111.197C745.649 111.191 745.993 110.833 745.987 110.403L745.945 107.963C745.939 107.531 745.583 107.187 745.149 107.193L724.629 107.539C724.196 107.547 723.853 107.902 723.86 108.334L723.9 110.773C723.908 111.205 724.263 111.549 724.695 111.543Z" fill="#141A2B"/>
<path d="M724.763 115.546L745.285 115.201C745.717 115.193 746.061 114.838 746.055 114.405L746.013 111.966C746.005 111.534 745.649 111.19 745.217 111.197L724.695 111.542C724.263 111.549 723.919 111.906 723.927 112.338L723.968 114.777C723.975 115.209 724.331 115.554 724.763 115.546Z" fill="#141A2B"/>
<path d="M724.831 119.549L745.352 119.204C745.784 119.197 746.129 118.841 746.121 118.409L746.081 115.969C746.073 115.538 745.717 115.193 745.285 115.201L724.763 115.547C724.331 115.555 723.987 115.909 723.995 116.342L724.035 118.781C724.043 119.213 724.399 119.557 724.831 119.549Z" fill="#141A2B"/>
<path d="M729.083 121.481L741.168 121.277C741.6 121.271 741.944 120.915 741.937 120.481L741.896 118.043C741.888 117.611 741.532 117.267 741.1 117.273L729.016 117.477C728.584 117.485 728.239 117.841 728.247 118.273L728.287 120.712C728.295 121.144 728.651 121.488 729.083 121.481Z" fill="#141A2B"/>
<path d="M679.991 159.815C679.991 159.815 676.4 150.332 679.191 140.428C681.756 131.324 685.844 126.776 685.953 130.443C685.953 130.443 689.499 126.891 689.371 131.212C689.371 131.212 691.164 128.727 692.505 129.467C693.503 130.017 693.556 131.779 693.556 131.779C693.556 131.779 695.681 128.713 697.319 129.349C699.268 130.107 697.639 138.169 695.475 144.916C695.475 144.916 698.772 139.763 700.996 141.064C704.153 142.913 695.799 158.959 695.799 158.959L679.991 159.815Z" fill="#FFA78F"/>
<path d="M685.781 130.243L686.291 130.555C686.264 130.596 683.735 134.724 682.561 137.805L682.003 137.592C683.196 134.459 685.756 130.284 685.781 130.243Z" fill="#141A2B"/>
<path d="M689.141 130.987L689.68 131.243C689.661 131.281 687.881 135.028 686.773 138.453L686.205 138.269C687.327 134.807 689.124 131.025 689.141 130.987Z" fill="#141A2B"/>
<path d="M693.307 131.615L693.829 131.904C693.805 131.945 691.464 136.196 689.889 140.647L689.327 140.447C690.919 135.949 693.284 131.657 693.307 131.615Z" fill="#141A2B"/>
<path d="M695.279 144.608L695.799 144.899C695.788 144.92 694.628 146.999 693.879 148.729L693.332 148.492C694.092 146.733 695.267 144.629 695.279 144.608Z" fill="#141A2B"/>
<path d="M747.715 242.928C732.78 242.928 698.363 215.355 698.363 158.624C698.363 158.624 688.945 154.448 677.284 155.919C677.284 155.919 677.284 243.728 727.732 285.275L740.821 272.448L747.715 242.928Z" fill="#F9A71B"/>
<path d="M763.16 610.498L763.912 587.777H784.244L782.824 611.583L763.16 610.498Z" fill="#FFA78F"/>
<path d="M786.003 330.464C799.715 352.972 808.484 385.648 806.524 411.931L787.981 597.079H760.551L756.271 330.464H786.003Z" fill="#1E254D"/>
<path d="M702.588 491.713L722.861 481.428L732.655 499.245L708.373 511.655L702.588 491.713Z" fill="#FFA78F"/>
<path d="M708.865 388.408C711.84 367.935 720.881 354.316 730.704 338.192L758.48 330.464L793.693 409.935L819.475 428.759C832.737 438.441 830.8 458.792 815.948 465.797L727.732 507.411L711.448 478.251L757.245 444.78L751.6 444.06C739.047 442.456 727.585 436.099 719.579 426.297C710.916 415.695 706.897 401.957 708.865 388.408Z" fill="#1E254D"/>
<path d="M737.704 388.908L776.784 385.747V336.903H737.704V388.908Z" fill="#1E254D"/>
<path d="M720.531 356.492C733.303 353.381 735.135 339.877 735.151 339.743L734.236 339.628C734.219 339.756 732.456 352.637 720.312 355.596L720.531 356.492Z" fill="#141A2B"/>
<path d="M794.648 356.492L794.867 355.596C782.709 352.633 780.963 339.757 780.945 339.628L780.029 339.743C780.047 339.879 781.879 353.381 794.648 356.492Z" fill="#141A2B"/>
<path d="M779.435 610.662L797.972 615.692C804.523 617.469 809.681 622.516 811.601 629.025H769.419L766.739 622.74H765.549L764.227 629.025H759.809L761.579 610.76L779.435 610.662Z" fill="#1E254D"/>
<path d="M762.813 610.753C762.813 610.753 777.417 623.965 800.699 616.652C800.699 616.652 790.36 611.419 779.435 610.662L771.145 605.805L762.813 610.753Z" fill="#FFA78F"/>
<path d="M709.3 505.228L705.252 524.004C703.823 530.639 699.055 536.056 692.656 538.314L690.436 496.193L696.572 493.184L696.509 491.997L690.163 491.007L689.931 486.596L708.261 487.401L709.3 505.228Z" fill="#1E254D"/>
<path d="M708.333 488.636C708.333 488.636 695.911 503.915 704.436 526.777C704.436 526.777 709.119 516.177 709.3 505.228L713.713 496.695L708.333 488.636Z" fill="#FFA78F"/>
<path d="M749.591 218.589C747.467 220.387 745.301 222.209 742.743 223.304C740.184 224.399 737.128 224.675 734.671 223.369C732.213 222.063 730.687 218.897 731.785 216.341C729.447 217.487 726.525 216.949 724.395 215.455C722.263 213.959 720.835 211.639 719.881 209.216C719.288 207.708 718.856 206.031 719.329 204.481C720.299 201.319 724.251 200.397 727.533 200.004C727.672 200.56 726.977 201.033 726.417 200.913C725.857 200.793 725.453 200.316 725.108 199.857C722.539 196.444 720.703 192.229 721.171 187.983C721.639 183.737 724.929 179.648 729.187 179.293L729.532 179.307C730.113 179.465 729.916 180.472 729.332 180.617C728.749 180.765 728.175 180.345 727.793 179.88C726.213 177.945 726.444 174.999 727.704 172.841C728.965 170.685 731.049 169.156 733.123 167.763C735.012 166.493 737.04 165.247 739.308 165.064C741.577 164.88 744.121 166.115 744.665 168.324C744.681 168.768 743.945 168.6 743.673 168.251C741.495 165.463 742.865 161.069 745.691 158.937C748.515 156.805 752.261 156.407 755.8 156.371C757.584 156.352 759.42 156.417 761.053 157.136C762.685 157.856 764.081 159.373 764.155 161.156C762.289 160.392 762.821 157.275 764.625 156.373C766.428 155.472 768.591 156.077 770.487 156.765C772.301 157.423 774.135 158.168 775.573 159.455C777.012 160.741 778.005 162.68 777.688 164.584C776.601 164.957 775.537 163.516 775.968 162.452C776.396 161.388 777.751 160.945 778.869 161.192C779.991 161.439 780.919 162.201 781.768 162.973C784.773 165.709 787.435 168.975 788.7 172.836C787.597 173.069 786.375 172.411 785.961 171.363C786.703 170.047 788.732 170.723 789.915 171.664C792.952 174.084 795.347 177.303 796.791 180.908C797.42 182.483 797.872 184.241 797.373 185.861C796.873 187.483 795.109 188.805 793.496 188.279C794.091 187.559 794.925 187.04 795.835 186.828C798.748 189.743 800.503 193.784 800.645 197.903C800.699 199.472 800.479 201.164 799.432 202.333C798.385 203.504 796.293 203.812 795.293 202.601C796.243 202.383 796.992 203.413 797.308 204.336C798.951 209.127 796.307 214.969 791.627 216.899C790.409 217.401 788.435 217.16 788.508 215.845C788.672 219.685 786.191 223.497 782.613 224.903C779.965 225.944 777.011 225.72 774.177 225.463C773.564 225.407 772.916 225.337 772.427 224.964C771.937 224.589 771.716 223.799 772.14 223.355C773.191 223.411 772.937 225.044 772.353 225.917C770.975 227.968 769.163 230.256 766.695 230.167C765.604 230.128 764.596 229.608 763.645 229.076C761.279 227.749 758.999 226.265 756.827 224.637C756.229 224.188 755.604 223.679 755.408 222.959C755.135 221.959 755.824 220.899 756.733 220.401C757.643 219.904 758.716 219.836 759.751 219.78" fill="#141A2B"/>
<path d="M731.819 198.585C731.819 213.303 743.751 225.232 758.467 225.232C773.184 225.232 785.113 213.303 785.113 198.585C785.113 183.868 773.184 171.939 758.467 171.939C743.751 171.939 731.819 183.868 731.819 198.585Z" fill="#141A2B"/>
<path d="M732.628 212.932C733.857 216.38 737.112 218.284 739.899 217.183C742.685 216.083 743.948 212.393 742.719 208.944C741.491 205.496 738.236 203.593 735.448 204.693C732.663 205.795 731.399 209.483 732.628 212.932Z" fill="#FFA78F"/>
<path d="M734.645 213.415L735.219 213.247C735.208 213.211 734.183 209.576 736.66 207.625L736.292 207.156C733.493 209.36 734.597 213.251 734.645 213.415Z" fill="#141A2B"/>
<path d="M784.489 212.932C783.26 216.38 780.005 218.284 777.219 217.183C774.432 216.083 773.169 212.393 774.397 208.944C775.627 205.496 778.881 203.593 781.668 204.693C784.455 205.795 785.719 209.483 784.489 212.932Z" fill="#FFA78F"/>
<path d="M782.901 213.415C782.951 213.251 784.056 209.36 781.256 207.156L780.888 207.625C783.365 209.576 782.34 213.211 782.329 213.247L782.901 213.415Z" fill="#141A2B"/>
<path d="M748.725 233.455L758.313 232.701L767.903 233.455L769.396 247.468H758.313H747.232L748.725 233.455Z" fill="#FFA78F"/>
<path d="M767.903 233.455C767.903 233.455 763.595 240.084 758.313 240.084C753.031 240.084 748.725 233.455 748.725 233.455H767.903Z" fill="#BA3E22"/>
<path d="M737.139 199.865L737.104 199.575L737.101 199.553H737.103C737.033 198.816 736.999 198.069 736.999 197.313C736.999 184.901 746.513 174.839 758.251 174.839C769.985 174.839 779.501 184.901 779.501 197.313C779.501 198.069 779.465 198.816 779.396 199.553L779.395 199.575L779.361 199.859L777.161 219.205L777.147 219.325L777.095 219.789H777.091C775.875 229.651 765.664 237.269 758.251 237.269C750.917 237.269 740.791 229.815 739.445 220.105H739.443L739.417 219.867C739.385 219.621 739.356 219.375 739.332 219.125L737.139 199.865Z" fill="#FFA78F"/>
<path d="M793.055 284.857C776.771 285.772 766.661 297.18 750.408 298.528C749.845 298.547 749.283 298.567 748.72 298.584C747.612 298.619 746.501 298.657 745.391 298.695C744.917 298.705 744.441 298.715 743.967 298.725C734.849 298.927 734.015 284.705 724.896 284.765L743.213 272.96C737.508 249.969 722.368 245.304 747.949 242.905C754.473 242.417 761.031 243.385 767.557 243.873L768.183 242.905C794.249 245.251 806.481 269.336 800.068 292.621L793.055 284.857Z" fill="#F9A71B"/>
<path d="M734.296 246.645C734.296 246.645 741.963 260.57 758.153 260.57C775.396 260.57 781.971 246.645 781.971 246.645C815.153 260.489 791.309 298.464 791.309 298.464L787 340.201C787 340.201 759.399 355.964 729.456 340.201L724.061 299.074L734.296 246.645Z" fill="#F9A71B"/>
<path d="M735.775 204.401L739.343 211.983C739.343 211.983 740.856 203.923 740.748 194.207C740.748 194.207 755.317 199.301 768.955 188.385C768.955 188.385 771.021 194.499 776.696 198.573C776.696 198.573 777.388 206.372 779.076 211.983C779.076 211.983 793.209 173.685 757.772 173.685C728.156 173.685 735.775 204.401 735.775 204.401Z" fill="#141A2B"/>
<path d="M758.192 218.283C759.668 218.177 760.635 217.648 761.063 216.712C762.124 214.391 759.219 210.451 759.093 210.284L758.377 210.82C759.136 211.837 760.948 214.812 760.249 216.34C759.967 216.956 759.252 217.309 758.128 217.391L758.192 218.283Z" fill="#141A2B"/>
<path d="M743.749 206.391L751.705 204.563L751.172 202.237L743.213 204.067L743.749 206.391Z" fill="#141A2B"/>
<path d="M773.8 206.391L774.333 204.067L766.376 202.237L765.841 204.563L773.8 206.391Z" fill="#141A2B"/>
<path d="M758.909 224.827C760.22 224.827 761.087 224.513 761.167 224.484L760.853 223.645C760.695 223.704 756.92 225.035 753.045 221.42L752.435 222.073C754.843 224.319 757.237 224.827 758.909 224.827Z" fill="#141A2B"/>
<path d="M720.508 276.359C720.508 276.359 712.68 295.793 731.512 302.212L734.096 286.18L720.508 276.359Z" fill="#F9A71B"/>
<path d="M768.783 241.712C768.783 241.712 770.592 256.152 758.129 256.152C745.667 256.152 747.715 242.928 747.715 242.928L749.437 240.084L764.621 240.693L768.783 241.712Z" fill="#FFA78F"/>
<path d="M795.481 276.515C795.481 276.515 802.24 296.344 784.548 301.843C784.548 301.843 782.877 286.917 782.953 287.144C783.028 287.372 795.481 276.515 795.481 276.515Z" fill="#F9A71B"/>
<path d="M765.22 211.983H766.465C766.465 211.003 767.261 210.205 768.243 210.205C769.223 210.205 770.02 211.003 770.02 211.983H771.264C771.264 210.316 769.909 208.961 768.243 208.961C766.576 208.961 765.22 210.316 765.22 211.983Z" fill="#141A2B"/>
<path d="M747.307 211.983H748.552C748.552 211.003 749.349 210.205 750.329 210.205C751.309 210.205 752.107 211.003 752.107 211.983H753.352C753.352 210.316 751.996 208.961 750.329 208.961C748.663 208.961 747.307 210.316 747.307 211.983Z" fill="#141A2B"/>
<path d="M790.353 310.631L792.105 297.891L791.22 297.769L789.468 310.508L790.353 310.631Z" fill="#141A2B"/>
<path d="M725.328 310.631L726.215 310.508L724.463 297.769L723.576 297.891L725.328 310.631Z" fill="#141A2B"/>
<path d="M729.584 301.843L729.911 301.011L729.493 300.847C715.512 295.344 719.836 278.803 720.027 278.101L720.143 277.669L719.28 277.433L719.163 277.865C719.115 278.045 714.435 295.881 729.167 301.679L729.584 301.843Z" fill="#141A2B"/>
<path d="M778.029 184.689L779.08 184.02C776.224 179.548 770.293 174.216 758.251 174.216C746.201 174.216 740.491 179.327 737.821 183.612L738.877 184.271C742.519 178.425 749.036 175.461 758.251 175.461C767.467 175.461 774.121 178.565 778.029 184.689Z" fill="white"/>
<path d="M757.663 282.201H758.596V264.609H757.663V282.201Z" fill="#141A2B"/>
<path d="M735.115 217.495C735.115 218.277 735.749 218.912 736.531 218.912C737.313 218.912 737.948 218.277 737.948 217.495C737.948 216.713 737.313 216.079 736.531 216.079C735.749 216.079 735.115 216.713 735.115 217.495Z" fill="white"/>
<path d="M779.472 217.495C779.472 218.277 780.105 218.912 780.888 218.912C781.669 218.912 782.305 218.277 782.305 217.495C782.305 216.713 781.669 216.079 780.888 216.079C780.105 216.079 779.472 216.713 779.472 217.495Z" fill="white"/>
<path d="M809.627 348.102C809.627 348.102 800.96 353.368 790.712 352.436C781.293 351.581 776.075 348.394 779.659 347.614C779.659 347.614 775.517 344.78 779.791 344.114C779.791 344.114 777.017 342.805 777.5 341.352C777.86 340.27 779.581 339.896 779.581 339.896C779.581 339.896 776.179 338.368 776.505 336.641C776.893 334.585 785.117 334.712 792.144 335.606C792.144 335.606 786.475 333.308 787.349 330.882C788.588 327.441 803.559 332.513 803.559 332.513L809.627 348.102Z" fill="#FFA78F"/>
<path d="M779.492 347.82L779.707 347.264C779.752 347.281 784.273 349.013 787.517 349.603L787.411 350.191C784.112 349.589 779.539 347.839 779.492 347.82Z" fill="#141A2B"/>
<path d="M779.611 344.381L779.764 343.805C779.805 343.815 783.813 344.88 787.384 345.344L787.307 345.935C783.697 345.468 779.649 344.392 779.611 344.381Z" fill="#141A2B"/>
<path d="M779.465 340.172L779.653 339.605C779.699 339.62 784.307 341.144 788.971 341.879L788.877 342.468C784.164 341.725 779.512 340.187 779.465 340.172Z" fill="#141A2B"/>
<path d="M791.879 335.856L792.069 335.291C792.092 335.299 794.348 336.059 796.187 336.476L796.053 337.059C794.185 336.633 791.901 335.863 791.879 335.856Z" fill="#141A2B"/>
<path d="M781.971 246.645C808.077 254.871 843.084 294.296 843.084 305.783C843.084 324.837 809.627 348.103 809.627 348.103C809.627 348.103 801.419 342.205 803.559 332.513C803.559 332.513 814.181 321.733 814.181 308.121C814.181 308.121 796.749 295.269 782.953 287.144L781.971 246.645Z" fill="#F9A71B"/>
<path d="M793.96 296.035C799.316 288.523 796.556 278.003 796.52 277.865L796.401 277.433L795.539 277.669L795.656 278.101C795.804 278.643 798.42 288.652 793.14 295.709" fill="#141A2B"/>
<path d="M768.335 237.516C790.472 238.412 790.388 265.549 758.232 265.549C726.076 265.549 732.064 237.269 748.319 237.269C748.319 237.269 744.541 256.152 758.129 256.152C771.717 256.152 768.335 237.516 768.335 237.516Z" fill="white"/>
<path d="M805.517 419.408L806.128 418.469L757.549 386.859L756.939 387.797L805.517 419.408Z" fill="#141A2B"/>
<path d="M750.237 388.562L766.98 387.208L766.889 386.09L750.145 387.447L750.237 388.562Z" fill="#141A2B"/>
<path d="M759.115 493.225L800.633 473.639L800.155 472.628L758.637 492.213L759.115 493.225Z" fill="#141A2B"/>
<path d="M757.395 445.319L762.856 443.805L762.557 442.727L757.095 444.241L757.395 445.319Z" fill="#141A2B"/>
<path d="M254.457 610.662L272.996 615.692C279.545 617.469 284.704 622.516 286.624 629.025H244.443L241.761 622.74H240.573L239.251 629.025H234.833L236.601 610.76L254.457 610.662Z" fill="#1E254D"/>
<path d="M237.837 610.753C237.837 610.753 252.443 623.965 275.723 616.652C275.723 616.652 265.383 611.419 254.457 610.662L246.168 605.805L237.837 610.753Z" fill="#FFA78F"/>
<path d="M206.96 610.662L188.423 615.692C181.873 617.469 176.715 622.516 174.795 629.025H216.976L219.657 622.74H220.845L222.168 629.025H226.585L224.816 610.76L206.96 610.662Z" fill="#1E254D"/>
<path d="M223.581 610.753C223.581 610.753 208.976 623.965 185.696 616.652C185.696 616.652 196.035 611.419 206.96 610.662L215.249 605.805L223.581 610.753Z" fill="#FFA78F"/>
<path d="M240.203 218.589C242.328 220.387 244.495 222.209 247.053 223.304C249.611 224.399 252.667 224.675 255.124 223.369C257.581 222.063 259.108 218.897 258.009 216.341C260.348 217.487 263.269 216.949 265.4 215.455C267.532 213.959 268.96 211.639 269.913 209.216C270.507 207.708 270.939 206.031 270.464 204.481C269.496 201.319 265.544 200.397 262.26 200.004C262.123 200.56 262.816 201.033 263.377 200.913C263.937 200.793 264.341 200.316 264.687 199.857C267.256 196.444 269.092 192.229 268.624 187.983C268.156 183.737 264.865 179.648 260.608 179.293L260.261 179.307C259.681 179.465 259.879 180.472 260.463 180.617C261.045 180.765 261.62 180.345 262.001 179.88C263.581 177.945 263.351 174.999 262.091 172.841C260.831 170.685 258.745 169.156 256.672 167.763C254.783 166.493 252.755 165.247 250.487 165.064C248.219 164.88 245.673 166.115 245.129 168.324C245.113 168.768 245.849 168.6 246.121 168.251C248.3 165.463 246.928 161.069 244.104 158.937C241.28 156.805 237.533 156.407 233.995 156.371C232.212 156.352 230.373 156.417 228.741 157.136C227.109 157.856 225.713 159.373 225.64 161.156C227.505 160.392 226.973 157.275 225.169 156.373C223.367 155.472 221.203 156.077 219.308 156.765C217.493 157.423 215.66 158.168 214.221 159.455C212.781 160.741 211.789 162.68 212.108 164.584C213.192 164.957 214.256 163.516 213.828 162.452C213.399 161.388 212.045 160.945 210.924 161.192C209.804 161.439 208.875 162.201 208.027 162.973C205.021 165.709 202.36 168.975 201.093 172.836C202.196 173.069 203.419 172.411 203.833 171.363C203.092 170.047 201.063 170.723 199.881 171.664C196.843 174.084 194.448 177.303 193.004 180.908C192.373 182.483 191.921 184.241 192.42 185.861C192.92 187.483 194.685 188.805 196.299 188.279C195.704 187.559 194.869 187.04 193.96 186.828C191.047 189.743 189.291 193.784 189.149 197.903C189.095 199.472 189.315 201.164 190.361 202.333C191.409 203.504 193.501 203.812 194.501 202.601C193.552 202.383 192.803 203.413 192.485 204.336C190.844 209.127 193.487 214.969 198.168 216.899C199.385 217.401 201.36 217.16 201.287 215.845C201.123 219.685 203.604 223.497 207.181 224.903C209.829 225.944 212.784 225.72 215.617 225.463C216.231 225.407 216.879 225.337 217.368 224.964C217.857 224.589 218.079 223.799 217.653 223.355C216.605 223.411 216.857 225.044 217.443 225.917C218.819 227.968 220.632 230.256 223.101 230.167C224.191 230.128 225.197 229.608 226.148 229.076C228.516 227.749 230.796 226.265 232.968 224.637C233.565 224.188 234.191 223.679 234.387 222.959C234.66 221.959 233.971 220.899 233.06 220.401C232.152 219.904 231.079 219.836 230.043 219.78" fill="#141A2B"/>
<path d="M253.952 211.517C252.72 214.973 249.457 216.883 246.664 215.779C243.871 214.675 242.605 210.978 243.836 207.521C245.068 204.065 248.331 202.157 251.125 203.26C253.917 204.364 255.184 208.06 253.952 211.517Z" fill="#FFA78F"/>
<path d="M251.928 212.001L251.355 211.833C251.365 211.797 252.393 208.155 249.909 206.199L250.279 205.728C253.084 207.937 251.977 211.837 251.928 212.001Z" fill="#141A2B"/>
<path d="M201.968 211.517C203.199 214.973 206.461 216.883 209.255 215.779C212.049 214.675 213.315 210.978 212.084 207.521C210.851 204.065 207.588 202.157 204.795 203.26C202.001 204.364 200.736 208.06 201.968 211.517Z" fill="#FFA78F"/>
<path d="M203.559 212.001C203.511 211.837 202.403 207.937 205.208 205.728L205.579 206.199C203.093 208.155 204.123 211.797 204.133 211.833L203.559 212.001Z" fill="#141A2B"/>
<path d="M237.816 232.089L228.205 231.333L218.595 232.089L217.097 246.136H228.205H239.313L237.816 232.089Z" fill="#FFA78F"/>
<path d="M218.593 232.089C218.593 232.089 222.912 238.735 228.205 238.735C233.5 238.735 237.816 232.089 237.816 232.089H218.593Z" fill="#BA3E22"/>
<path d="M249.431 198.421L249.464 198.129L249.467 198.108H249.465C249.535 197.369 249.571 196.621 249.571 195.863C249.571 183.421 240.033 173.335 228.269 173.335C216.505 173.335 206.968 183.421 206.968 195.863C206.968 196.621 207.004 197.369 207.073 198.108L207.075 198.129L207.108 198.413L209.312 217.807L209.327 217.925L209.38 218.392H209.383C210.601 228.277 220.837 235.913 228.269 235.913C235.617 235.913 245.769 228.44 247.119 218.708H247.12L247.147 218.471C247.179 218.223 247.208 217.976 247.231 217.727L249.431 198.421Z" fill="#FFA78F"/>
<path d="M223.213 611.091L222.483 589.022H202.735L204.051 611.091H223.213Z" fill="#FFA78F"/>
<path d="M201.025 339.089C187.707 360.953 179.188 392.692 181.093 418.219L199.103 598.055H225.747L229.904 339.089H201.025Z" fill="#1E254D"/>
<path d="M257.537 611.091L256.807 589.022H237.059L238.373 611.091H257.537Z" fill="#FFA78F"/>
<path d="M255.839 339.089C269.156 360.953 278.851 392.692 276.945 418.219L259.345 598.055H231.963L227.757 339.089H255.839Z" fill="#1E254D"/>
<path d="M193.383 283.612C209.704 284.53 219.837 295.965 236.129 297.317C236.693 297.334 237.257 297.356 237.821 297.372C238.933 297.408 240.045 297.445 241.159 297.484C241.635 297.494 242.111 297.504 242.585 297.514C251.724 297.716 252.561 283.461 261.703 283.521L271.687 290.418C277.405 267.374 264.236 243.966 238.595 241.561C232.055 241.073 225.48 242.044 218.94 242.532L218.312 241.561C192.185 243.913 179.923 268.056 186.352 291.394L193.383 283.612Z" fill="#F9A71B"/>
<path d="M254.512 246.456C254.512 246.456 247.083 259.269 228.827 259.269C209.385 259.269 205.483 244.804 205.483 244.804C168.067 258.68 191.441 297.252 191.441 297.252L197.017 345.263C197.017 345.263 215.24 354.913 259.283 345.115L266.887 288.052L254.512 246.456Z" fill="#F9A71B"/>
<path d="M226.473 216.881C227.953 216.776 228.921 216.245 229.352 215.307C230.416 212.98 227.504 209.032 227.379 208.864L226.66 209.4C227.42 210.42 229.237 213.403 228.536 214.935C228.252 215.552 227.537 215.907 226.409 215.988L226.473 216.881Z" fill="#141A2B"/>
<path d="M242.804 204.963L234.828 203.129L235.364 200.799L243.34 202.632L242.804 204.963Z" fill="#141A2B"/>
<path d="M212.683 204.963L212.147 202.632L220.123 200.799L220.659 203.129L212.683 204.963Z" fill="#141A2B"/>
<path d="M228.167 437.875L229.527 437.869L229.332 394.199L227.972 394.204L228.167 437.875Z" fill="#141A2B"/>
<path d="M217.712 240.365C217.712 240.365 215.897 254.841 228.389 254.841C240.883 254.841 238.829 241.585 238.829 241.585L237.103 238.735L221.883 239.345L217.712 240.365Z" fill="#FFA78F"/>
<path d="M251.703 216.092C251.703 216.876 251.067 217.512 250.283 217.512C249.499 217.512 248.863 216.876 248.863 216.092C248.863 215.308 249.499 214.672 250.283 214.672C251.067 214.672 251.703 215.308 251.703 216.092Z" fill="white"/>
<path d="M207.241 216.092C207.241 216.876 206.605 217.512 205.821 217.512C205.037 217.512 204.401 216.876 204.401 216.092C204.401 215.308 205.037 214.672 205.821 214.672C206.605 214.672 207.241 215.308 207.241 216.092Z" fill="white"/>
<path d="M236.125 395.015L236.171 393.655L221.051 393.164L221.005 394.524L236.125 395.015Z" fill="#141A2B"/>
<path d="M177.472 316.775L197.575 280.985L206.032 244.663C206.032 244.663 185.569 247.873 171.475 268.687C167.744 274.196 165.065 280.348 163.233 286.745L152.872 322.931C150.427 331.473 156.088 340.208 164.885 341.463" fill="#F9A71B"/>
<path d="M196.687 338.072L190.781 295.6L191.669 295.477L197.575 337.949L196.687 338.072Z" fill="#141A2B"/>
<path d="M196.801 299.56L196.384 299.396C181.619 293.585 186.308 275.706 186.357 275.526L186.475 275.093L187.34 275.33L187.223 275.762C187.032 276.465 182.697 293.046 196.713 298.561L197.131 298.725L196.801 299.56Z" fill="#141A2B"/>
<path d="M272.171 313.692L263.483 283.569L250.923 244.663C250.923 244.663 269.415 247.873 283.508 268.687C287.239 274.196 289.917 280.348 291.749 286.745L302.111 322.931C304.556 331.473 298.895 340.208 290.099 341.463" fill="#F9A71B"/>
<path d="M258.853 299.845C271.876 293.475 267.496 276.779 267.448 276.605L267.331 276.172L266.465 276.408L266.584 276.841C266.767 277.515 270.749 292.753 258.771 298.885L258.853 299.845Z" fill="#141A2B"/>
<path d="M262.58 321.181L261.692 321.058L265.433 292.448L266.323 292.569L262.58 321.181Z" fill="#141A2B"/>
<path d="M290.099 341.463L239.901 329.641L240.935 309.448L274.487 314.005" fill="#F9A71B"/>
<path d="M205.788 202.456L209.356 210.037C209.356 210.037 210.869 201.976 210.761 192.261C210.761 192.261 225.332 197.356 238.969 186.44C238.969 186.44 241.035 192.553 246.711 196.628C246.711 196.628 247.401 204.427 249.089 210.037C249.089 210.037 263.223 171.74 227.785 171.74C198.171 171.74 205.788 202.456 205.788 202.456Z" fill="#141A2B"/>
<path d="M248.044 182.744L249.093 182.073C246.239 177.601 240.307 172.271 228.264 172.271C216.216 172.271 210.505 177.38 207.835 181.667L208.892 182.325C212.532 176.48 219.049 173.516 228.264 173.516C237.48 173.516 244.135 176.62 248.044 182.744Z" fill="white"/>
<path d="M219.816 209.892C219.816 209.028 219.116 208.329 218.253 208.329C217.391 208.329 216.691 209.028 216.691 209.892C216.691 210.755 217.391 211.455 218.253 211.455C219.116 211.455 219.816 210.755 219.816 209.892Z" fill="#141A2B"/>
<path d="M237.771 209.892C237.771 209.028 237.071 208.329 236.208 208.329C235.345 208.329 234.645 209.028 234.645 209.892C234.645 210.755 235.345 211.455 236.208 211.455C237.071 211.455 237.771 210.755 237.771 209.892Z" fill="#141A2B"/>
<path d="M226.331 224.868C225.981 224.663 225.608 224.507 225.228 224.381C225.54 223.301 226.709 222.601 227.981 222.799C229.349 223.011 230.305 224.172 230.116 225.395C229.963 226.389 229.096 227.105 228.043 227.228C228.057 226.427 227.451 225.527 226.331 224.868Z" fill="#141A2B"/>
<path d="M225.161 224.628L225.228 224.381C225.608 224.507 225.981 224.663 226.331 224.868C227.451 225.527 228.057 226.427 228.043 227.228C227.801 227.257 227.552 227.264 227.296 227.224C225.928 227.013 224.972 225.851 225.161 224.628Z" fill="#EE2B3A"/>
<path d="M263.097 361.772L263.204 360.659C249.269 359.331 249.835 347.956 249.865 347.472L248.749 347.397C248.74 347.528 248.061 360.34 263.097 361.772Z" fill="#141A2B"/>
<path d="M191.567 361.772C206.604 360.34 205.924 347.528 205.916 347.397L204.8 347.472C204.831 347.956 205.396 359.331 191.461 360.659L191.567 361.772Z" fill="#141A2B"/>
<path d="M194.923 347.361V306.06C194.923 304.37 196.292 303.001 197.981 303.001H255.712C257.401 303.001 258.771 304.37 258.771 306.06V347.361C258.771 349.049 257.401 350.418 255.712 350.418H197.981C196.292 350.418 194.923 349.049 194.923 347.361Z" fill="#C5C3C2"/>
<path d="M227.221 277.791H228.34V259.252H227.221V277.791Z" fill="#141A2B"/>
<path d="M238.243 236.16C260.379 237.056 260.295 264.193 228.139 264.193C195.984 264.193 201.971 235.913 218.225 235.913C218.225 235.913 214.448 254.796 228.036 254.796C241.624 254.796 238.243 236.16 238.243 236.16Z" fill="white"/>
<path d="M221.188 330V323.42C221.188 322.104 222.255 321.036 223.572 321.036H230.121C231.439 321.036 232.505 322.104 232.505 323.42V330C232.505 331.317 231.439 332.384 230.121 332.384H223.572C222.255 332.384 221.188 331.317 221.188 330Z" fill="#A2A2A1"/>
<path d="M199.144 345.441C199.144 345.441 208.673 348.975 218.581 346.112C227.689 343.477 232.22 339.351 228.544 339.265C228.544 339.265 232.081 335.688 227.749 335.844C227.749 335.844 230.229 334.029 229.477 332.691C228.919 331.695 227.153 331.653 227.153 331.653C227.153 331.653 230.212 329.503 229.563 327.865C228.789 325.917 220.72 327.604 213.972 329.819C213.972 329.819 219.115 326.48 217.796 324.259C215.921 321.108 202.152 328.944 202.152 328.944L199.144 345.441Z" fill="#FFA78F"/>
<path d="M228.747 339.436L228.429 338.928C228.388 338.955 224.268 341.519 221.188 342.716L221.405 343.273C224.537 342.055 228.704 339.463 228.747 339.436Z" fill="#141A2B"/>
<path d="M227.976 336.073L227.716 335.535C227.679 335.553 223.935 337.363 220.509 338.497L220.697 339.065C224.16 337.917 227.94 336.091 227.976 336.073Z" fill="#141A2B"/>
<path d="M227.32 331.903L227.027 331.381C226.984 331.404 222.739 333.78 218.289 335.389L218.493 335.952C222.991 334.325 227.277 331.925 227.32 331.903Z" fill="#141A2B"/>
<path d="M214.283 330.015L213.987 329.494C213.967 329.506 211.891 330.682 210.161 331.444L210.401 331.99C212.16 331.217 214.261 330.027 214.283 330.015Z" fill="#141A2B"/>
<path d="M164.885 341.463L203.509 347.789L202.476 327.595L177.472 316.775" fill="#F9A71B"/>
<path d="M512.447 138.941C512.447 172.961 540.025 200.539 574.044 200.539C608.064 200.539 635.643 172.961 635.643 138.941C635.643 104.921 608.064 77.3426 574.044 77.3426C540.025 77.3426 512.447 104.921 512.447 138.941Z" fill="#4525FF"/>
<path d="M521.363 138.941C521.363 168.036 544.949 191.623 574.044 191.623C603.139 191.623 626.725 168.036 626.725 138.941C626.725 109.845 603.139 86.2599 574.044 86.2599C544.949 86.2599 521.363 109.845 521.363 138.941Z" fill="white"/>
<path d="M611.121 176.365C616.053 171.48 620.023 165.628 622.725 159.115C620.153 165.325 616.344 171.144 611.296 176.192C611.237 176.251 611.18 176.308 611.121 176.365ZM626.725 139.18C626.725 139.176 626.725 139.175 626.725 139.171C626.725 139.172 626.725 139.177 626.725 139.18ZM626.725 139.101C626.725 139.093 626.725 139.083 626.725 139.073C626.725 139.084 626.725 139.092 626.725 139.101ZM626.725 139.021C626.725 138.997 626.725 138.973 626.725 138.949C626.725 138.972 626.725 138.999 626.725 139.021ZM626.725 138.821C626.725 138.809 626.725 138.792 626.725 138.779C626.725 138.793 626.725 138.807 626.725 138.821ZM626.725 138.724C626.725 138.717 626.725 138.707 626.725 138.7C626.725 138.708 626.725 138.716 626.725 138.724ZM626.724 138.632C626.724 138.628 626.724 138.627 626.724 138.623C626.724 138.625 626.724 138.631 626.724 138.632ZM622.785 118.915C617.439 105.916 607.047 95.5266 594.043 90.1879C600.319 92.7599 606.2 96.5932 611.296 101.689C616.385 106.779 620.215 112.648 622.785 118.915ZM537.573 100.925C542.381 96.3092 547.851 92.7812 553.668 90.3452C547.653 92.8692 542.208 96.4772 537.573 100.925Z" fill="#5139DC"/>
<path d="M608.123 179.099C625.724 158.4 624.765 127.317 605.216 107.769C594.933 97.4853 581.46 92.3467 567.985 92.3467C555.841 92.3467 543.699 96.52 533.887 104.864C534.809 103.779 535.768 102.715 536.793 101.691C537.052 101.431 537.311 101.177 537.573 100.925C542.208 96.4773 547.653 92.8693 553.668 90.3453C560.169 87.6213 567.108 86.26 574.044 86.26C580.848 86.26 587.649 87.5693 594.043 90.188C607.047 95.5267 617.439 105.916 622.785 118.915C625.371 125.216 626.684 131.916 626.724 138.623C626.724 138.627 626.724 138.628 626.724 138.632C626.724 138.655 626.724 138.677 626.725 138.7C626.725 138.707 626.725 138.717 626.725 138.724C626.725 138.743 626.725 138.761 626.725 138.779C626.725 138.792 626.725 138.809 626.725 138.821C626.725 138.835 626.725 138.847 626.725 138.86C626.725 138.887 626.725 138.915 626.725 138.941C626.725 138.944 626.725 138.945 626.725 138.949C626.725 138.973 626.725 138.997 626.725 139.021C626.725 139.04 626.725 139.056 626.725 139.073C626.725 139.083 626.725 139.093 626.725 139.101C626.725 139.125 626.725 139.148 626.725 139.171C626.725 139.175 626.725 139.176 626.725 139.18C626.695 145.965 625.361 152.745 622.725 159.115C620.023 165.628 616.053 171.48 611.121 176.365C610.151 177.325 609.145 178.228 608.123 179.099Z" fill="#F8F8FC"/>
<path d="M577.08 93.4279V86.3519C576.075 86.2945 575.064 86.2599 574.044 86.2599C573.025 86.2599 572.015 86.2945 571.009 86.3519V93.4279H577.08Z" fill="#766CBD"/>
<path d="M571.009 184.455V191.529C572.015 191.585 573.025 191.623 574.044 191.623C575.064 191.623 576.075 191.585 577.08 191.529V184.455H571.009Z" fill="#766CBD"/>
<path d="M536.195 113.652L530.171 109.781C529.869 110.233 529.58 110.691 529.292 111.152L535.313 115.021L536.195 113.652Z" fill="#766CBD"/>
<path d="M611.893 164.231L617.917 168.101C618.219 167.649 618.509 167.191 618.797 166.729L612.773 162.86L611.893 164.231Z" fill="#766CBD"/>
<path d="M548.755 176.791L544.884 182.815C545.336 183.115 545.795 183.407 546.255 183.693L550.125 177.671L548.755 176.791Z" fill="#766CBD"/>
<path d="M599.333 101.092L603.204 95.0679C602.752 94.7666 602.295 94.4759 601.832 94.1879L597.964 100.211L599.333 101.092Z" fill="#4027EC"/>
<path d="M553.077 98.5372L549.667 92.2425C549.185 92.4945 548.707 92.7532 548.235 93.0199L551.644 99.3132L553.077 98.5372Z" fill="#766CBD"/>
<path d="M595.012 179.345L598.421 185.639C598.904 185.388 599.381 185.128 599.855 184.861L596.444 178.569L595.012 179.345Z" fill="#766CBD"/>
<path d="M533.64 159.908L527.347 163.318C527.597 163.801 527.857 164.277 528.124 164.75L534.417 161.34L533.64 159.908Z" fill="#766CBD"/>
<path d="M614.448 117.973L620.743 114.563C620.491 114.081 620.232 113.604 619.965 113.131L613.672 116.541L614.448 117.973Z" fill="#766CBD"/>
<path d="M528.531 135.905H521.456C521.399 136.91 521.363 137.921 521.363 138.941C521.363 139.96 521.399 140.972 521.456 141.976H528.531V135.905Z" fill="#766CBD"/>
<path d="M619.557 141.976H626.633C626.691 140.972 626.725 139.96 626.725 138.941C626.725 137.921 626.691 136.91 626.633 135.905H619.557V141.976Z" fill="#766CBD"/>
<path d="M574.865 134.753L572.851 132.737L601.387 105.644L574.865 134.753Z" fill="#141A2B"/>
<path d="M572.411 134.313L557.716 117.823L574.427 132.297L572.411 134.313Z" fill="#141A2B"/>
<path d="M570.285 130.172C568.312 132.145 568.312 135.344 570.285 137.317C572.259 139.291 575.457 139.291 577.431 137.317C579.404 135.344 579.404 132.145 577.431 130.172C575.457 128.199 572.259 128.199 570.285 130.172Z" fill="#141A2B"/>
<path d="M572.595 132.483C571.897 133.18 571.897 134.311 572.595 135.008C573.293 135.705 574.423 135.705 575.121 135.008C575.819 134.311 575.819 133.18 575.121 132.483C574.423 131.784 573.293 131.784 572.595 132.483Z" fill="white"/>
<path d="M53.5391 257.319L58.4505 270.592L71.724 275.503L58.4505 280.415L53.5391 293.688L48.6276 280.415L35.3541 275.503L48.6276 270.592L53.5391 257.319Z" fill="#E6E1F3"/>
<path d="M105.269 330.699L108.794 340.225L118.32 343.751L108.794 347.275L105.269 356.801L101.745 347.275L92.2188 343.751L101.745 340.225L105.269 330.699Z" fill="#E6E1F3"/>
<path d="M917.729 269.267L922.641 282.54L935.916 287.452L922.641 292.363L917.729 305.637L912.817 292.363L899.544 287.452L912.817 282.54L917.729 269.267Z" fill="#E6E1F3"/>
<path d="M875.02 23.0238L878.753 33.1158L888.848 36.8505L878.753 40.5852L875.02 50.6785L871.285 40.5852L861.193 36.8505L871.285 33.1158L875.02 23.0238Z" fill="#E6E1F3"/>
<path d="M956.409 61.08L958.975 68.0133L965.909 70.5786L958.975 73.144L956.409 80.0786L953.844 73.144L946.911 70.5786L953.844 68.0133L956.409 61.08Z" fill="#E6E1F3"/>
<path d="M969.46 342.647L972.984 352.173L982.511 355.697L972.984 359.224L969.46 368.749L965.935 359.224L956.409 355.697L965.935 352.173L969.46 342.647Z" fill="#E6E1F3"/>
<path d="M538.696 30.0853L541.217 36.8972L548.028 39.4172L541.217 41.9386L538.696 48.7493L536.176 41.9386L529.364 39.4172L536.176 36.8972L538.696 30.0853Z" fill="#E6E1F3"/>
<path d="M470.199 145.604L472.72 152.416L479.531 154.936L472.72 157.457L470.199 164.268L467.679 157.457L460.867 154.936L467.679 152.416L470.199 145.604Z" fill="white"/>
<path d="M536.195 241.916L537.845 246.373L542.304 248.023L537.845 249.672L536.195 254.131L534.545 249.672L530.087 248.023L534.545 246.373L536.195 241.916Z" fill="white"/>
<path d="M680.135 329.135L684.259 340.281L695.407 344.407L684.259 348.531L680.135 359.679L676.009 348.531L664.861 344.407L676.009 340.281L680.135 329.135Z" fill="white"/>
<path d="M648.5 57.5279L652.025 67.0546L661.551 70.5786L652.025 74.1039L648.5 83.6293L644.975 74.1039L635.449 70.5786L644.975 67.0546L648.5 57.5279Z" fill="#E6E1F3"/>
<path d="M879.539 392.315L881.591 397.86L887.136 399.912L881.591 401.963L879.539 407.507L877.487 401.963L871.943 399.912L877.487 397.86L879.539 392.315Z" fill="white"/>
<path d="M500 325.737L502.052 331.281L507.596 333.333L502.052 335.385L500 340.929L497.948 335.385L492.404 333.333L497.948 331.281L500 325.737Z" fill="#E6E1F3"/>
<path d="M433.699 272.111C431.575 273.908 429.408 275.731 426.849 276.825C424.291 277.92 421.235 278.196 418.777 276.891C416.321 275.584 414.793 272.419 415.893 269.863C413.555 271.008 410.633 270.472 408.501 268.976C406.371 267.48 404.941 265.161 403.988 262.737C403.395 261.229 402.963 259.552 403.437 258.003C404.407 254.84 408.359 253.919 411.641 253.525C411.779 254.083 411.085 254.555 410.525 254.435C409.964 254.315 409.56 253.837 409.216 253.379C406.647 249.967 404.811 245.751 405.277 241.505C405.747 237.259 409.036 233.169 413.293 232.815L413.64 232.829C414.221 232.987 414.023 233.993 413.44 234.139C412.857 234.287 412.281 233.867 411.901 233.401C410.321 231.467 410.552 228.52 411.812 226.363C413.072 224.207 415.157 222.677 417.229 221.284C419.119 220.015 421.147 218.768 423.416 218.585C425.684 218.403 428.228 219.637 428.773 221.847C428.789 222.289 428.053 222.123 427.78 221.773C425.603 218.984 426.973 214.591 429.797 212.459C432.621 210.328 436.369 209.928 439.907 209.892C441.691 209.873 443.528 209.939 445.161 210.657C446.793 211.377 448.188 212.895 448.263 214.677C446.396 213.913 446.929 210.797 448.732 209.895C450.535 208.993 452.699 209.599 454.593 210.287C456.409 210.944 458.241 211.689 459.68 212.976C461.12 214.263 462.112 216.201 461.795 218.105C460.709 218.479 459.645 217.037 460.075 215.973C460.503 214.909 461.857 214.467 462.977 214.713C464.099 214.96 465.027 215.723 465.875 216.495C468.88 219.231 471.543 222.497 472.808 226.359C471.705 226.591 470.483 225.932 470.069 224.884C470.811 223.568 472.839 224.244 474.021 225.185C477.059 227.605 479.453 230.824 480.897 234.429C481.528 236.004 481.98 237.763 481.481 239.384C480.981 241.004 479.217 242.327 477.604 241.801C478.197 241.081 479.032 240.563 479.941 240.349C482.855 243.264 484.611 247.305 484.752 251.424C484.807 252.993 484.587 254.685 483.54 255.856C482.493 257.027 480.4 257.333 479.4 256.123C480.349 255.904 481.1 256.936 481.416 257.857C483.057 262.648 480.416 268.491 475.733 270.421C474.517 270.923 472.543 270.681 472.615 269.367C472.779 273.207 470.299 277.019 466.721 278.424C464.072 279.465 461.117 279.241 458.284 278.984C457.671 278.928 457.023 278.859 456.535 278.485C456.045 278.111 455.824 277.32 456.249 276.876C457.297 276.932 457.045 278.567 456.46 279.439C455.084 281.489 453.271 283.777 450.801 283.688C449.712 283.649 448.704 283.129 447.753 282.597C445.385 281.271 443.105 279.787 440.935 278.159C440.336 277.711 439.712 277.2 439.515 276.48C439.243 275.48 439.932 274.42 440.841 273.923C441.751 273.425 442.824 273.359 443.859 273.301" fill="#141A2B"/>
<path d="M399.784 488.895L386.833 629.025H396.24L416.089 491.041L399.784 488.895Z" fill="#141A2B"/>
<path d="M506.856 491.041L526.705 615.125L536.112 613.886L523.161 488.895L506.856 491.041Z" fill="#141A2B"/>
<path d="M415.235 342.293V465.251H490.273V494.336H415.235H410.288C395.848 494.336 384.141 482.631 384.141 468.191V465.251L386.925 342.293H415.235Z" fill="#141A2B"/>
<path d="M436.384 327.925V450.883H511.421V479.968H436.384H431.437C416.997 479.968 398.361 468.787 398.361 454.347V451.408L405.291 327.925H436.384Z" fill="#1D2E53"/>
<path d="M450.86 489.968L455.407 629.025H462.76L467.307 489.968H450.86Z" fill="#141A2B"/>
<path d="M531.128 610.753L532.076 578.049H555.687L554.524 611.319L531.128 610.753Z" fill="#FFA78F"/>
<path d="M433.196 298.995L434.167 282.452H453.237L454.583 298.045C455.257 300.58 456.029 301.497 457.851 301.96L475.641 304.753C471.399 326.359 443.648 334.428 443.648 334.428C426.647 325.012 415.636 304.753 415.636 304.753L429.74 302.925C431.639 302.532 432.404 301.183 433.196 298.995Z" fill="#FFA78F"/>
<path d="M469.444 269.785C468.125 273.363 464.635 275.337 461.644 274.195C458.656 273.053 457.301 269.228 458.619 265.651C459.936 262.072 463.428 260.099 466.417 261.24C469.407 262.383 470.761 266.208 469.444 269.785Z" fill="#FFA78F"/>
<path d="M414.859 269.785C416.176 273.363 419.668 275.337 422.657 274.195C425.645 273.053 427 269.228 425.683 265.651C424.364 262.072 420.873 260.099 417.884 261.24C414.895 262.383 413.54 266.208 414.859 269.785Z" fill="#FFA78F"/>
<path d="M416.577 270.288C416.564 270.247 415.34 266.08 418.34 263.796L418.708 264.279C416.048 266.305 417.147 270.075 417.159 270.112L416.577 270.288Z" fill="#141F2D"/>
<path d="M433.583 292.431C433.583 292.431 435.573 295.96 443.551 296.835C454.583 298.045 454.225 291.895 454.225 291.895L456.584 283.691H430.696L433.583 292.431Z" fill="#BA3E22"/>
<path d="M462.683 300.62C462.683 300.62 463.487 315.988 443.997 315.988C425.696 315.988 425.759 301.064 425.759 301.064C425.759 301.064 385.401 308.44 384.141 354.081L405.888 361.548L412.257 419.8L478.777 420.105L481.901 360.859L511.027 353.707C511.027 353.707 500.777 306.017 462.683 300.62Z" fill="#F9A71B"/>
<path d="M476.687 365.109L477.141 364.889C493.26 357.115 486.485 337.403 486.415 337.204L486.247 336.728L485.293 337.067L485.461 337.543C485.736 338.317 492.001 356.599 476.703 363.979L476.247 364.197L476.687 365.109Z" fill="#141A2B"/>
<path d="M482.221 374.656L483.125 360.148L482.116 360.085L481.212 374.593L482.221 374.656Z" fill="#141A2B"/>
<path d="M491.537 389.931C492.201 392.175 493.453 395.955 492.891 396.663C492.891 396.663 489.232 397.46 488.031 395.096C486.831 392.735 485.568 390.747 487.027 388.761C487.847 387.645 489.953 386.805 489.953 386.805C489.953 386.805 490.873 387.687 491.537 389.931ZM501.028 382.776C490.161 369.823 469.5 385.837 469.5 385.837L473.807 403.08C482.5 401.688 493.167 401.812 493.167 401.812C494.753 404.031 497.077 402.673 497.077 402.673C498.635 403.651 500.433 401.767 500.433 401.767C500.433 401.767 501.492 402.717 503.053 401.889C504.915 400.903 504.165 399.529 504.165 399.529C507.764 402.417 511.897 395.728 501.028 382.776Z" fill="#FFA78F"/>
<path d="M500.088 401.791C500.081 401.669 499.159 389.54 491.968 386.708L492.221 386.068C499.817 389.059 500.743 401.227 500.777 401.744L500.088 401.791Z" fill="#141A2B"/>
<path d="M496.737 402.728C496.72 402.616 494.92 391.544 491.064 386.683L491.604 386.253C495.575 391.257 497.345 402.157 497.419 402.619L496.737 402.728Z" fill="#141A2B"/>
<path d="M493.511 401.833L492.821 401.792C492.827 401.705 493.304 393.219 489.844 386.935L490.449 386.601C494.007 393.064 493.516 401.748 493.511 401.833Z" fill="#141A2B"/>
<path d="M503.82 399.545C503.624 394.994 501.575 391.019 498.196 388.635C495.691 386.864 492.851 386.284 490.412 387.032C488.532 387.611 487.369 388.488 486.955 389.64C486.455 391.031 486.993 392.897 488.601 395.348L488.024 395.726C486.917 394.038 485.535 391.551 486.305 389.407C486.799 388.039 488.111 387.019 490.208 386.373C492.857 385.559 495.912 386.177 498.595 388.071C502.148 390.58 504.305 394.751 504.511 399.516L503.82 399.545Z" fill="#141A2B"/>
<path d="M504.043 400.465L489.4 367.416L486.939 368.507L501.58 401.556L504.043 400.465Z" fill="#F9A71B"/>
<path d="M499.117 402.646L501.58 401.556L486.939 368.506L484.475 369.597L499.117 402.646Z" fill="#FBBE1C"/>
<path d="M504.405 404.607L501.941 405.697L503.645 407.537C504.012 407.932 504.669 407.64 504.623 407.104L504.405 404.607Z" fill="#1E272B"/>
<path d="M504.043 400.465L499.117 402.647L501.941 405.697L504.405 404.607L504.043 400.465Z" fill="#F3CD83"/>
<path d="M487.419 362.943C486.941 361.863 485.679 361.377 484.601 361.855L483.581 362.307C482.503 362.785 482.016 364.045 482.493 365.125L483.052 366.385L487.977 364.203L487.419 362.943Z" fill="#F03B37"/>
<path d="M489.4 367.416L487.977 364.203L483.052 366.385L484.475 369.597L489.4 367.416Z" fill="#C6C5C3"/>
<path d="M431.065 419.8C431.065 419.8 425.556 432.235 423.345 444.076C420.613 458.711 428.249 473.228 439.856 475.832L523.465 498.139L530.741 593.508H556.289L555.852 484.131C556.752 473.855 551.963 464.151 544.313 460.755L462.864 420.105L431.065 419.8Z" fill="#1E254D"/>
<path d="M498.592 610.753L498.648 578.049H522.259L518.723 611.319L498.592 610.753Z" fill="#FFA78F"/>
<path d="M410.763 419.8C410.763 419.8 408.187 431.621 405.976 443.463C403.244 458.097 409.849 475.108 421.456 477.711L494.328 501.603L496.233 593.508H526.031L531.532 484.131C532.432 473.855 527.643 464.151 519.993 460.755L432.985 419.8H410.763Z" fill="#1E254D"/>
<path d="M528.193 557.51L531.553 492.175C536.084 464.381 517.939 458.964 517.755 458.913L466.577 434.812L465.961 436.123L517.251 460.264C518.063 460.505 534.437 465.477 530.116 492.021L526.747 557.437L528.193 557.51Z" fill="#141A2B"/>
<path d="M624.812 629.025H616.951L573.227 422.779L603.744 419.8L624.812 629.025Z" fill="#141A2B"/>
<path d="M316.843 629.025L337.912 419.8L368.429 422.779L324.705 629.025H316.843Z" fill="#141A2B"/>
<path d="M295.139 435.468H646.519V414.564H295.139V435.468Z" fill="#15171E"/>
<path d="M422.248 274.519C422.248 273.731 421.609 273.092 420.821 273.092C420.032 273.092 419.393 273.731 419.393 274.519C419.393 275.307 420.032 275.945 420.821 275.945C421.609 275.945 422.248 275.307 422.248 274.519Z" fill="white"/>
<path d="M467.716 274.519C467.716 273.731 467.077 273.092 466.288 273.092C465.5 273.092 464.861 273.731 464.861 274.519C464.861 275.307 465.5 275.945 466.288 275.945C467.077 275.945 467.716 275.307 467.716 274.519Z" fill="white"/>
<path d="M467.556 255.261L467.595 254.959L467.597 254.937H467.596C467.673 254.172 467.716 253.399 467.716 252.615C467.716 239.739 456.923 229.3 443.608 229.3C430.293 229.3 419.5 239.739 419.5 252.615C419.5 253.399 419.541 254.172 419.62 254.937H419.619L419.621 254.96L419.659 255.253L422.155 275.324L422.169 275.447L422.231 275.929H422.233C423.613 286.16 432.76 295.144 443.715 295.144C454.552 295.144 463.413 286.328 464.94 276.256H464.941L464.972 276.009C465.008 275.755 465.043 275.499 465.068 275.24L467.556 255.261Z" fill="#FFA78F"/>
<path d="M448.841 277.347C450.305 277.245 451.257 276.729 451.668 275.815C452.645 273.639 450.032 270.151 449.732 269.76L449.009 270.316C449.735 271.259 451.476 274.016 450.836 275.44C450.575 276.027 449.881 276.361 448.777 276.439L448.841 277.347Z" fill="#141F2D"/>
<path d="M434.695 263.02L442.94 261.187L442.412 258.813L434.167 260.647L434.695 263.02Z" fill="#141F2D"/>
<path d="M462.711 263.02L463.239 260.647L454.993 258.813L454.467 261.187L462.711 263.02Z" fill="#141F2D"/>
<path d="M450.417 283.889C451.772 283.889 452.667 283.579 452.748 283.548L452.439 282.69C452.277 282.742 448.353 284.084 444.329 280.456L443.719 281.135C446.211 283.38 448.689 283.889 450.417 283.889Z" fill="#141F2D"/>
<path d="M459.188 267.657C459.188 266.8 458.492 266.104 457.635 266.104C456.776 266.104 456.08 266.8 456.08 267.657C456.08 268.516 456.776 269.212 457.635 269.212C458.492 269.212 459.188 268.516 459.188 267.657Z" fill="#141F2D"/>
<path d="M441.076 267.657C441.076 266.8 440.38 266.104 439.523 266.104C438.664 266.104 437.968 266.8 437.968 267.657C437.968 268.516 438.664 269.212 439.523 269.212C440.38 269.212 441.076 268.516 441.076 267.657Z" fill="#141F2D"/>
<path d="M419.283 260.816L423.235 269.212C423.235 269.212 424.911 260.285 424.789 249.525C424.789 249.525 440.927 255.167 456.029 243.079C456.029 243.079 458.317 249.848 464.604 254.361C464.604 254.361 464.419 263.545 466.288 269.76C466.288 269.76 482.892 226.797 443.645 226.797C410.847 226.797 419.283 260.816 419.283 260.816Z" fill="#141A2B"/>
<path d="M466.081 238.984L467.243 238.243C464.081 233.289 457.512 227.385 444.175 227.385C430.832 227.385 424.507 233.045 421.551 237.792L422.72 238.521C426.752 232.047 433.971 228.764 444.175 228.764C454.381 228.764 461.751 232.203 466.081 238.984Z" fill="white"/>
<path d="M385.757 340.868L373.58 396.056C371.576 404.019 377.861 411.64 386.059 411.192L478.313 406.136L474.181 385.577L408.008 379.299L414.073 353.871L385.757 340.868Z" fill="#F9A71B"/>
<path d="M462.629 385.041L462.736 383.928L408.704 378.804L419.284 334.791L418.196 334.528L407.313 379.795L462.629 385.041Z" fill="#141A2B"/>
<path d="M477.764 347.663L478.857 347.423L474.729 328.467L473.637 328.705L477.764 347.663Z" fill="#141A2B"/>
<path d="M576.603 406.768H447.985C445.833 406.768 444.087 408.513 444.087 410.665C444.087 412.819 445.833 414.564 447.985 414.564H576.603C578.756 414.564 580.501 412.819 580.501 410.665C580.501 408.513 578.756 406.768 576.603 406.768Z" fill="#A2A2A1"/>
<path d="M578.472 414.564H465.023C463.903 414.564 462.995 413.655 462.995 412.535V336.687C462.995 335.567 463.903 334.659 465.023 334.659H578.472C579.592 334.659 580.501 335.567 580.501 336.687V412.535C580.501 413.655 579.593 414.564 578.472 414.564Z" fill="#C5C3C2"/>
<path d="M528.576 382.947H514.92C514.087 382.947 513.413 382.271 513.413 381.439V367.783C513.413 366.951 514.087 366.275 514.92 366.275H528.576C529.409 366.275 530.084 366.951 530.084 367.783V381.439C530.084 382.271 529.409 382.947 528.576 382.947Z" fill="#A2A2A1"/>
<path d="M442.895 342.949H443.829V325.356H442.895V342.949Z" fill="#141A2B"/>
<path d="M454.517 297.296C476.653 298.192 475.62 325.273 443.465 325.273C411.308 325.273 417.059 296.996 433.313 296.996C433.313 296.996 429.775 315.877 443.361 315.877C456.949 315.877 454.517 297.296 454.517 297.296Z" fill="white"/>
<path d="M547.748 610.662L566.285 615.692C572.836 617.469 577.995 622.516 579.915 629.025H537.733L535.051 622.74H533.863L532.54 629.025H528.124L529.892 610.76L547.748 610.662Z" fill="#1E254D"/>
<path d="M531.128 610.753C531.128 610.753 545.732 623.965 569.013 616.652C569.013 616.652 558.673 611.419 547.748 610.662L539.46 605.805L531.128 610.753Z" fill="#FFA78F"/>
<path d="M515.213 610.662L533.751 615.692C540.301 617.469 545.46 622.516 547.379 629.025H505.197L502.516 622.74H501.328L500.005 629.025H495.588L497.357 610.76L515.213 610.662Z" fill="#1E254D"/>
<path d="M498.592 610.753C498.592 610.753 513.196 623.965 536.477 616.652C536.477 616.652 526.139 611.419 515.213 610.662L506.924 605.805L498.592 610.753Z" fill="#FFA78F"/>
</svg>
