<svg width="3165" height="1511" viewBox="0 0 3165 1511" fill="none" xmlns="http://www.w3.org/2000/svg">
<path d="M2771.54 1506.04C2771.54 1506.04 3101.46 1128.21 2962.22 679.136C2837.22 276.09 2204.96 196.066 1884.65 361.586C1620.34 498.158 1504.95 196.295 1022.87 54.2118C666.381 -50.8594 238.1 -70.5377 458.387 637.342C624.192 1170.14 73.8924 899.941 184.162 1506.04H2771.54Z" fill="#EBF3FA"/>
<path d="M684.161 1506.04C684.161 1506.04 673.495 1396.14 533.051 1405.02C392.607 1413.92 380.161 1498.36 310.828 1461.02L268.568 1438.28C242.84 1424.42 214.784 1415.28 185.76 1411.89C138.703 1406.4 89.6066 1415.37 162.384 1502.33L684.161 1506.04Z" fill="#A8D29F"/>
<path d="M2587.9 1189.48C2587.9 1189.48 2643.51 1116.81 2662.83 1189.48C2682.18 1262.14 2616.84 1389.45 2650.17 1416.8C2683.5 1444.15 2766.17 1264.81 2800.83 1331.48C2835.51 1398.14 2786.84 1510.14 2858.84 1476.81C2930.84 1443.48 3074.17 1445.93 2932.16 1506.04H2424.18L2587.9 1189.48Z" fill="#A8D29F"/>
<path d="M2564.9 1446.36H1620.88C1585.96 1446.36 1557.67 1418.05 1557.67 1383.15V799.041C1557.67 764.136 1585.96 735.83 1620.88 735.83H2564.9C2599.8 735.83 2628.11 764.136 2628.11 799.041V1383.15C2628.11 1418.05 2599.8 1446.36 2564.9 1446.36Z" fill="#4A75CB"/>
<path d="M1603.23 529.356V969.723H2465.52V529.356H1603.23Z" fill="#82B378"/>
<path d="M1598.62 522.797V963.162H2460.94V522.797H1598.62Z" fill="#82B378"/>
<path d="M1592.51 517.104V957.477H2454.83V517.104H1592.51Z" fill="#82B378"/>
<path d="M2448.92 952.078H1586.59V511.71H2448.92V952.078Z" fill="#A8D29F"/>
<path d="M2385.09 890.037H1650.46V573.744H2385.09V890.037ZM1620.34 544.74V919.051H2415.19V544.74H1620.34Z" fill="#82B378"/>
<path d="M1620.33 544.745V629.865C1626.45 631.638 1632.89 632.625 1639.57 632.625C1677.89 632.625 1708.96 601.572 1708.96 563.252C1708.96 556.825 1708.01 550.638 1706.39 544.745H1620.33Z" fill="#82B378"/>
<path d="M2415.19 544.374H2330.07C2328.3 550.491 2327.31 556.931 2327.31 563.613C2327.31 601.933 2358.36 632.996 2396.68 632.996C2403.11 632.996 2409.3 632.054 2415.19 630.422V544.374Z" fill="#82B378"/>
<path d="M2415.19 919.051H2330.07C2328.3 912.93 2327.31 906.491 2327.31 899.811C2327.31 861.491 2358.36 830.423 2396.68 830.423C2403.11 830.423 2409.3 831.37 2415.19 832.997V919.051Z" fill="#82B378"/>
<path d="M1620.33 918.678V833.558C1626.45 831.784 1632.89 830.798 1639.57 830.798C1677.89 830.798 1708.96 861.851 1708.96 900.171C1708.96 906.598 1708.01 912.784 1706.39 918.678H1620.33Z" fill="#82B378"/>
<path d="M2111.05 731.895C2111.05 783.411 2069.28 825.186 2017.76 825.186C1966.24 825.186 1924.48 783.411 1924.48 731.895C1924.48 680.375 1966.24 638.61 2017.76 638.61C2069.28 638.61 2111.05 680.375 2111.05 731.895Z" fill="#82B378"/>
<path d="M2327.05 604.738C2229.93 616.873 2161.05 705.437 2173.2 802.549C2185.33 899.655 2273.89 968.549 2371.01 956.415C2468.11 944.281 2537.01 855.709 2524.88 758.602C2512.72 661.491 2424.17 592.603 2327.05 604.738Z" fill="#E2810E"/>
<path d="M2311.72 606.654C2214.62 618.789 2145.72 707.351 2157.85 804.467C2170 901.574 2258.56 970.467 2355.66 958.321C2452.78 946.187 2521.66 857.627 2509.53 760.522C2497.39 663.408 2408.84 594.519 2311.72 606.654Z" fill="#FFB93E"/>
<path d="M2315.14 633.911C2232.07 644.293 2172.91 720.31 2183.29 803.384C2193.68 886.452 2269.72 945.598 2352.79 935.223C2435.85 924.838 2494.99 848.797 2484.6 765.731C2474.22 682.659 2398.2 623.53 2315.14 633.911ZM2354 944.757C2265.65 955.797 2184.78 892.905 2173.76 804.571C2162.71 716.238 2225.61 635.402 2313.96 624.366C2402.28 613.326 2483.12 676.2 2494.14 764.531C2505.19 852.864 2442.31 933.732 2354 944.757Z" fill="#FFA412"/>
<path d="M2361.82 828.307C2361.8 824.799 2361.28 821.72 2360.28 819.053C2359.28 816.385 2357.63 813.973 2355.39 811.814C2353.12 809.666 2350.22 807.68 2346.65 805.866C2343.09 804.052 2338.75 802.28 2333.62 800.559C2324.78 797.534 2316.76 794.333 2309.57 790.999C2302.34 787.666 2296.17 783.8 2291.01 779.413C2285.86 775.013 2281.85 769.867 2278.98 763.961C2276.13 758.052 2274.66 751.001 2274.6 742.819C2274.55 735.727 2275.78 729.246 2278.25 723.387C2280.74 717.528 2284.3 712.412 2288.94 708.043C2293.61 703.674 2299.17 700.11 2305.66 697.357C2312.16 694.605 2319.46 692.826 2327.55 692.025L2327.37 665.228L2348.95 665.093L2349.11 692.265C2356.85 693.221 2363.86 695.222 2370.19 698.27C2376.5 701.32 2381.86 705.295 2386.28 710.192C2390.73 715.092 2394.15 720.893 2396.59 727.599C2398.99 734.307 2400.24 741.834 2400.29 750.178L2361.33 750.42C2361.28 740.404 2359 732.926 2354.52 727.986C2350.04 723.046 2344.08 720.598 2336.61 720.644C2332.58 720.668 2329.09 721.256 2326.18 722.401C2323.26 723.544 2320.87 725.107 2319.01 727.076C2317.12 729.053 2315.74 731.377 2314.86 734.055C2313.97 736.733 2313.54 739.614 2313.56 742.705C2313.58 745.795 2314.04 748.587 2314.98 751.086C2315.88 753.584 2317.43 755.891 2319.66 758.013C2321.86 760.12 2324.8 762.107 2328.45 763.961C2332.11 765.812 2336.64 767.733 2342.04 769.706C2350.79 772.907 2358.74 776.187 2365.9 779.574C2373.07 782.945 2379.23 786.853 2384.36 791.293C2389.52 795.72 2393.53 800.893 2396.4 806.8C2399.27 812.72 2400.74 819.719 2400.77 827.813C2400.82 835.159 2399.58 841.773 2397.06 847.626C2394.53 853.493 2390.95 858.559 2386.3 862.84C2381.65 867.133 2376.03 870.6 2369.46 873.212C2362.85 875.853 2355.52 877.559 2347.43 878.374L2347.59 903.279L2326.16 903.412L2326.01 878.626C2318.54 877.919 2311.31 876.333 2304.33 873.88C2297.36 871.413 2291.15 867.84 2285.74 863.16C2280.33 858.479 2275.95 852.559 2272.68 845.399C2269.4 838.241 2267.74 829.652 2267.67 819.626L2306.63 819.385C2306.66 825.319 2307.53 830.252 2309.22 834.212C2310.9 838.159 2313.14 841.32 2315.95 843.68C2318.75 846.053 2321.91 847.693 2325.47 848.639C2329.03 849.573 2332.65 850.026 2336.35 850.014C2340.57 849.986 2344.27 849.412 2347.45 848.307C2350.63 847.213 2353.31 845.693 2355.45 843.746C2357.58 841.813 2359.21 839.532 2360.24 836.894C2361.32 834.266 2361.83 831.4 2361.82 828.307Z" fill="#FFA412"/>
<path d="M2494.95 1501.9H1620.88C1585.98 1501.9 1557.67 1473.61 1557.67 1438.69V854.597C1557.67 819.676 1585.98 791.383 1620.88 791.383H2494.95C2529.86 791.383 2558.15 819.676 2558.15 854.597V1438.69C2558.15 1473.61 2529.86 1501.9 2494.95 1501.9Z" fill="#699FF0"/>
<path d="M2587.91 1243.71H2277.44C2223.82 1243.71 2180.36 1200.26 2180.36 1146.65C2180.36 1093.04 2223.82 1049.57 2277.44 1049.57H2587.91V1243.71Z" fill="#4A75CB"/>
<path d="M2353.51 1146.65C2353.51 1188.66 2319.44 1222.73 2277.43 1222.73C2235.41 1222.73 2201.34 1188.66 2201.34 1146.65C2201.34 1104.62 2235.41 1070.56 2277.43 1070.56C2319.44 1070.56 2353.51 1104.62 2353.51 1146.65Z" fill="#E9F3FE"/>
<path d="M2351.47 1392.89V1427.46C2351.47 1430.21 2350.64 1432.77 2349.19 1434.91C2347.66 1437.15 2345.49 1438.91 2342.94 1439.89C2342.14 1440.2 2341.33 1440.42 2340.49 1440.57C2340.22 1440.61 2339.97 1440.67 2339.73 1440.69C2339.51 1440.72 2339.31 1440.73 2339.1 1440.74C2339 1440.76 2338.9 1440.76 2338.8 1440.77C2338.57 1440.77 2338.35 1454.12 2338.13 1454.12L1787.41 1440.7C1780.31 1440.7 1774.46 1435.08 1774.09 1428.06C1774.09 1427.84 1774.09 1427.6 1774.09 1427.37V1392.8C1774.09 1392.57 1774.09 1392.35 1774.11 1392.12C1774.46 1385.11 1780.32 1379.48 1787.41 1379.48L2338.15 1379.56C2338.39 1379.56 2338.63 1379.57 2338.86 1379.58C2339.41 1379.61 2339.97 1379.68 2340.49 1379.77C2341.33 1379.92 2342.16 1380.15 2342.94 1380.46C2343.33 1380.61 2343.72 1380.78 2344.1 1380.97C2344.33 1381.09 2344.55 1381.21 2344.78 1381.34C2344.81 1381.34 2344.83 1381.37 2344.86 1381.39C2345.08 1381.52 2345.3 1381.67 2345.52 1381.81C2345.56 1381.83 2345.61 1381.86 2345.62 1381.88C2345.85 1382.01 2346.05 1382.16 2346.24 1382.32C2346.71 1382.66 2347.15 1383.05 2347.56 1383.48C2347.7 1383.6 2347.82 1383.73 2347.94 1383.87C2347.95 1383.88 2347.97 1383.9 2348 1383.93C2348.09 1384.01 2348.16 1384.1 2348.22 1384.18C2348.24 1384.2 2348.26 1384.23 2348.27 1384.24C2348.39 1384.39 2348.53 1384.56 2348.65 1384.72C2348.84 1384.96 2349.02 1385.2 2349.19 1385.45C2350.64 1387.57 2351.47 1390.13 2351.47 1392.89Z" fill="#FFB93E"/>
<path d="M2081.02 1440.75L2053.21 1478.48L1785.96 1440.71C1779.63 1440.71 1774.42 1435.08 1774.08 1428.07C1774.08 1427.84 1774.08 1427.6 1774.08 1427.37V1392.8C1774.08 1392.57 1774.08 1392.35 1774.1 1392.12C1774.42 1385.11 1779.64 1379.48 1785.98 1379.48L2044.8 1379.52C2044.9 1379.99 2045.01 1380.45 2045.13 1380.93C2049.41 1398.8 2059.1 1422.85 2080.9 1440.65C2080.94 1440.68 2080.97 1440.72 2081.02 1440.75Z" fill="#FFA412"/>
<path d="M2284.45 1440.77H2278.18L2278.2 1379.54L2284.46 1379.56L2284.45 1440.77Z" fill="#FFA412"/>
<path d="M2263.27 1440.77H2257.01L2257.02 1379.54H2263.27V1440.77Z" fill="#FFA412"/>
<path d="M2237.85 1440.77H2231.6V1379.54H2237.87L2237.85 1440.77Z" fill="#FFA412"/>
<path d="M2198.91 1440.77L2192.66 1440.76V1379.54H2198.92L2198.91 1440.77Z" fill="#FFA412"/>
<path d="M2157.74 1440.76H2151.47L2151.48 1379.53H2157.74V1440.76Z" fill="#FFA412"/>
<path d="M2094.59 1440.74H2088.33L2088.35 1379.52L2094.6 1379.53L2094.59 1440.74Z" fill="#FFA412"/>
<path d="M2035.49 1440.74H2029.23V1379.52H2035.49V1440.74Z" fill="#FFA412"/>
<path d="M1982.68 1440.73H1976.42V1379.51H1982.7L1982.68 1440.73Z" fill="#FFA412"/>
<path d="M2304.63 1440.78H2298.37L2298.39 1379.56H2304.63V1440.78Z" fill="#FFA412"/>
<path d="M2317.94 1440.79H2311.68L2311.7 1379.56H2317.96L2317.94 1440.79Z" fill="#FFA412"/>
<path d="M2330.82 1440.78H2324.55L2324.57 1379.56H2330.82V1440.78Z" fill="#FFA412"/>
<path d="M2340.49 1379.77V1440.57C2339.71 1440.71 2338.95 1440.79 2338.14 1440.79H2334.23V1379.56H2338.14C2338.95 1379.56 2339.73 1379.64 2340.49 1379.77Z" fill="#FFA412"/>
<path d="M2349.19 1385.45V1434.9C2347.66 1437.15 2345.49 1438.91 2342.94 1439.89V1380.46C2345.49 1381.45 2347.66 1383.21 2349.19 1385.45Z" fill="#FFA412"/>
<path d="M1795.12 945.963L1781.58 955.136C1781.58 955.136 1749.96 947.577 1737.01 981.256C1737.01 981.256 1732.69 995.535 1743.37 994.775C1754.04 994.016 1749.89 992.762 1764.94 992.029C1779.99 991.295 1793.61 983.696 1797.52 973.256L1806.18 964.016L1795.12 945.963Z" fill="#ED985F"/>
<path d="M1791.83 960.783C1784.02 951.357 1787.74 945.997 1787.74 945.997C1787.74 945.997 1870.69 854.903 1876.92 846.01C1883.15 837.116 1898.15 707.871 1898.15 707.871C1898.15 707.871 1902.14 655.865 1929.09 646.261C1952.53 637.915 1971.18 647.885 1984.4 660.837C2000.15 676.27 2005.19 699.994 1997.36 720.475C1979.73 766.45 1943.98 857.824 1931.94 874.304C1905.16 910.971 1805.7 971.264 1805.7 971.264C1805.7 971.264 1797.95 968.197 1791.83 960.783Z" fill="#233862"/>
<path d="M2381.59 1454.02L2381.57 1488.6C2381.57 1491.36 2380.75 1493.9 2379.29 1496.04C2377.8 1498.28 2375.6 1500.04 2373.04 1501.02C2372.27 1501.33 2371.44 1501.56 2370.6 1501.7C2369.84 1501.85 2369.06 1501.93 2368.27 1501.92L1817.52 1501.84C1810.43 1501.84 1804.58 1496.21 1804.22 1489.2C1804.2 1488.97 1804.2 1488.74 1804.2 1488.52V1453.94C1804.2 1453.7 1804.22 1453.49 1804.23 1453.25C1804.56 1446.77 1809.59 1441.46 1815.96 1440.72C1816.48 1440.65 1817.01 1440.61 1817.54 1440.61L2368.27 1440.7C2369.07 1440.7 2369.84 1440.77 2370.62 1440.92C2371.46 1441.06 2372.27 1441.29 2373.06 1441.6C2375.6 1442.58 2377.8 1444.34 2379.31 1446.58C2380.75 1448.72 2381.59 1451.26 2381.59 1454.02Z" fill="#FFB93E"/>
<path d="M2111.14 1501.89L1816.09 1501.84C1809.76 1501.84 1804.54 1496.21 1804.23 1489.2C1804.21 1488.97 1804.21 1488.74 1804.21 1488.52V1453.94C1804.21 1453.7 1804.23 1453.49 1804.24 1453.25C1804.52 1446.77 1809.02 1441.48 1814.7 1440.72C1815.15 1440.65 1815.63 1440.61 1816.11 1440.61L2074.93 1440.65C2074.93 1440.68 2074.95 1440.72 2074.95 1440.76C2079.09 1458.77 2088.72 1483.64 2111.14 1501.89Z" fill="#FFA412"/>
<path d="M2314.57 1501.92H2308.3L2308.31 1440.69H2314.57V1501.92Z" fill="#FFA412"/>
<path d="M2293.38 1501.92H2287.13L2287.14 1440.69H2293.4L2293.38 1501.92Z" fill="#FFA412"/>
<path d="M2267.97 1501.9H2261.73V1440.69H2267.99L2267.97 1501.9Z" fill="#FFA412"/>
<path d="M2229.03 1501.9H2222.78V1440.68H2229.04L2229.03 1501.9Z" fill="#FFA412"/>
<path d="M2187.84 1501.9L2181.59 1501.89V1440.68H2187.86L2187.84 1501.9Z" fill="#FFA412"/>
<path d="M2124.71 1501.89H2118.45V1440.66H2124.72L2124.71 1501.89Z" fill="#FFA412"/>
<path d="M2065.59 1501.88H2059.35L2059.36 1440.65H2065.61L2065.59 1501.88Z" fill="#FFA412"/>
<path d="M2012.82 1501.88H2006.56L2006.57 1440.65H2012.82V1501.88Z" fill="#FFA412"/>
<path d="M2334.74 1501.92H2328.49L2328.51 1440.69H2334.76L2334.74 1501.92Z" fill="#FFA412"/>
<path d="M2348.08 1501.92H2341.82V1440.69H2348.08V1501.92Z" fill="#FFA412"/>
<path d="M2360.94 1501.92L2354.67 1501.93L2354.69 1440.7H2360.94V1501.92Z" fill="#FFA412"/>
<path d="M2370.62 1440.92V1501.7C2369.85 1501.85 2369.08 1501.92 2368.25 1501.92H2364.35V1440.69L2368.27 1440.71C2369.08 1440.69 2369.86 1440.77 2370.62 1440.92Z" fill="#FFA412"/>
<path d="M2379.31 1446.58V1496.04C2377.78 1498.28 2375.6 1500.04 2373.05 1501.02L2373.06 1441.6C2375.62 1442.58 2377.78 1444.34 2379.31 1446.58Z" fill="#FFA412"/>
<path d="M1884.42 1470.53L1884.66 966.617C1884.66 949.176 1870.41 934.896 1852.95 934.883L934.822 934.469C917.37 934.457 903.097 948.723 903.086 966.176L902.859 1470.09C902.849 1487.53 917.115 1501.81 934.556 1501.83L1852.7 1502.23C1870.14 1502.24 1884.42 1487.97 1884.42 1470.53Z" fill="#C65447"/>
<path d="M1884.64 1019.25L903.067 1018.81L903.01 1131.08L1884.58 1131.53L1884.64 1019.25Z" fill="#365DA4"/>
<path d="M1577.48 1162.73L976.908 1162.46L976.855 1250.73L1577.43 1251L1577.48 1162.73Z" fill="#E9F3FE"/>
<path d="M1099.31 1409.45L1099.33 1345.11C1099.35 1331.87 1088.61 1321.13 1075.39 1321.13L1000.79 1321.09C987.561 1321.09 976.814 1331.81 976.814 1345.05L976.788 1409.39C976.788 1422.63 987.508 1433.36 1000.73 1433.37L1075.33 1433.4C1088.56 1433.41 1099.29 1422.68 1099.31 1409.45Z" fill="#E9F3FE"/>
<path d="M1211.35 1332.52L1801.32 1332.79C1806.46 1332.79 1810.6 1328.64 1810.6 1323.51L1810.61 1314.44C1810.61 1309.32 1806.47 1305.16 1801.33 1305.16L1211.36 1304.89C1206.23 1304.88 1202.08 1309.04 1202.08 1314.16L1202.07 1323.23C1202.07 1328.36 1206.22 1332.52 1211.35 1332.52Z" fill="#E9F3FE"/>
<path d="M1211.23 1384.34L1801.41 1384.61C1806.48 1384.61 1810.58 1380.52 1810.59 1375.44V1366.8C1810.59 1361.72 1806.49 1357.61 1801.42 1357.61L1211.23 1357.34C1206.17 1357.34 1202.05 1361.45 1202.05 1366.52V1375.17C1202.04 1380.24 1206.17 1384.34 1211.23 1384.34Z" fill="#E9F3FE"/>
<path d="M1810.56 1425.36L1810.57 1415.56C1810.57 1410.33 1806.32 1406.09 1801.1 1406.09L1211.51 1405.83C1206.26 1405.81 1202.02 1410.05 1202.02 1415.29V1425.08C1202.02 1430.32 1206.26 1434.56 1211.5 1434.56L1801.08 1434.83C1806.3 1434.83 1810.56 1430.6 1810.56 1425.36Z" fill="#E9F3FE"/>
<path d="M2275.07 1420.01C2275.07 1420.01 2291.66 1436.12 2288.42 1447.56C2285.18 1459.01 2270.22 1466.64 2268.19 1480.63C2266.16 1494.63 2258.07 1502.25 2250.79 1502.25C2243.51 1502.25 2216.08 1502.25 2216.08 1502.25C2216.08 1502.25 2210.73 1492.41 2223.66 1489.44C2236.61 1486.47 2241.48 1470.03 2240.68 1454.77C2239.87 1439.51 2241.9 1419.16 2241.9 1419.16L2269.4 1412.37L2275.07 1420.01Z" fill="#233862"/>
<path d="M2071.58 1461.68C2071.58 1461.68 2074.56 1498.33 2067.29 1502.15L1974.09 1501.95C1974.09 1501.95 1974.09 1490.51 1989.05 1487.96C2004.02 1485.41 2030.32 1476.09 2034.77 1455.32C2039.22 1434.55 2071.58 1461.68 2071.58 1461.68Z" fill="#233862"/>
<path d="M1992.91 943.79C1992.91 943.79 1997.82 1008.06 2003.59 1085.31C2011.45 1190.24 2020.89 1319.14 2021.83 1343.56C2023.44 1385.96 2029.93 1453.79 2029.93 1453.79C2029.93 1453.79 2045.28 1469.89 2076.04 1463.11C2076.04 1463.11 2103.44 1366.28 2111.27 1263.84C2111.39 1262.16 2111.5 1260.47 2111.63 1258.77C2118.91 1154.5 2130.24 934.882 2130.24 934.882L1992.91 943.79Z" fill="#C65447"/>
<path d="M1992.91 943.789C1992.91 943.789 1997.82 1008.06 2003.59 1085.31L2111.27 1263.84C2111.39 1262.16 2111.5 1260.47 2111.63 1258.77C2118.91 1154.5 2130.24 934.882 2130.24 934.882L1992.91 943.789Z" fill="#AA413E"/>
<path d="M2015.36 951.414C2015.36 951.414 2103.95 1184.16 2162.22 1293.53C2220.46 1402.92 2238.67 1433.44 2238.67 1433.44C2238.67 1433.44 2272.04 1419.45 2275.08 1409.91C2275.08 1409.91 2252.79 1198.75 2213.79 1147.28C2191.74 1118.19 2164.63 1030.93 2164.63 1000.39C2164.63 925.013 2145.2 899.866 2145.2 899.866L2015.36 951.414Z" fill="#C65447"/>
<path d="M1989.91 616.937C1989.91 616.937 1945.53 670.041 1906.95 674.517C1906.95 674.517 1910.64 660.29 1921.78 645.989C1917.59 639.7 1914.07 634.194 1911.32 629.416C1904.78 618.49 1901.89 611.938 1901.89 611.938L1916.69 584.038L1930.64 557.438C1950.21 606.222 1989.91 616.937 1989.91 616.937Z" fill="#FFB27D"/>
<path d="M2150.05 919.062C2129.76 941.247 2109.69 959.354 2084.23 973.688C2054.2 990.822 2013.89 1000.19 2001.22 1006.11C1999.92 1006.69 1998.52 1006.7 1997.06 1006.26C1995.92 1006.02 1980.29 972.354 1961.3 928.154C1960.22 925.608 1959.13 923.062 1958.02 920.46C1957.17 918.54 1956.32 916.607 1955.59 914.635L1955.31 913.995C1947.32 895.234 1939.34 875.434 1931.61 855.501C1930.37 852.342 1929.13 849.181 1927.92 846.021C1912.36 805.661 1899.23 767.088 1895.17 743.518C1890.16 713.481 1897.92 688.708 1906.39 669.431L1913.58 653.96C1926.34 651.087 1938.44 644.962 1948.16 633.444C1958.85 620.891 1970.34 607.358 1973.48 608.118C1991.85 612.126 2011.1 627.583 2029.54 650.622C2034.68 657.021 2039.75 664.021 2044.73 671.516C2056.54 689.306 2067.77 709.822 2077.9 732.088C2078.31 732.976 2078.71 733.882 2079.14 734.786C2079.91 736.55 2080.67 738.226 2081.35 739.801C2085.44 749.045 2089.38 758.673 2093.01 768.274C2112.39 820.528 2135.07 863.328 2148.2 888.075C2152.03 895.313 2154.97 900.915 2156.91 904.969C2158.65 908.501 2152.77 916.021 2150.05 919.062Z" fill="#2B478B"/>
<path d="M1939.17 575.63C1939.17 575.63 1936.29 609.318 1911.32 629.415C1904.78 618.485 1901.89 611.935 1901.89 611.935L1916.68 584.045L1939.17 575.63Z" fill="#ED985F"/>
<path d="M1891.18 615.742C1891.18 615.742 1951.38 600.09 1941.38 563.248C1931.38 526.406 1932.41 499.578 1893.57 508.022C1854.72 516.451 1851.09 532.568 1851.39 545.692C1851.7 558.83 1875.27 618.852 1891.18 615.742Z" fill="#FFB27D"/>
<path d="M1931.69 486.212C1931.95 485.398 1932.91 484.41 1935.46 483.103C1935.46 483.103 1932.79 482.725 1929.97 483.887C1927.81 480.502 1923.03 474.922 1916.08 476.128C1916.08 476.128 1920.24 476.433 1922.39 480.095C1911.84 475.867 1893.91 477.32 1852.4 499.739C1797.69 529.293 1832.42 557.336 1841.67 558.411C1850.93 559.486 1864.15 539.45 1878.32 534.495C1892.47 529.526 1903.8 548.124 1909.64 548.792C1915.48 549.446 1911.55 545.465 1916.57 539.842C1921.59 534.233 1926.79 544.375 1927.95 551.931C1929.14 559.501 1941.71 564.601 1941.71 564.601C1941.71 564.601 1941.71 564.601 1946.27 551.364C1950.84 538.127 1941.46 494.727 1933.75 488.014C1933.07 487.418 1932.38 486.808 1931.69 486.212Z" fill="#2C3A64"/>
<path d="M1961.29 928.161C1960.21 925.614 1959.12 923.067 1958.02 920.467C1957.15 918.548 1956.3 916.613 1955.58 914.641L1955.29 914.001C1947.31 895.241 1939.33 875.442 1931.6 855.508C1930.36 852.347 1929.12 849.188 1927.9 846.027C1952.47 780.014 1985.99 710.15 1985.99 710.15C1985.99 710.15 2019.45 853.081 1961.29 928.161Z" fill="#233862"/>
<path d="M1788.06 914.959L1772.42 922.211C1772.42 922.211 1740.55 909.931 1721.47 942.011C1721.47 942.011 1714.62 955.772 1725.91 956.572C1737.18 957.372 1733.05 955.505 1748.92 956.985C1764.8 958.451 1780.31 952.799 1786.1 942.839L1796.68 934.785L1788.06 914.959Z" fill="#FFB27D"/>
<path d="M1782.19 929.421C1775.58 918.768 1780.35 913.901 1780.35 913.901C1780.35 913.901 1882.1 834.22 1890.08 826.18C1898.05 818.127 1935.01 689.961 1935.01 689.961C1935.01 689.961 1947.73 638.091 1977.51 632.371C2003.37 627.4 2021.27 640.204 2032.96 655.214C2046.91 673.101 2048.29 697.771 2036.72 717.277C2010.73 761.061 1958.31 847.968 1943.01 862.807C1908.96 895.848 1794.97 942.034 1794.97 942.034C1794.97 942.034 1787.37 937.794 1782.19 929.421Z" fill="#2B478B"/>
<path d="M281.415 1069.62C281.415 1069.62 224.031 1089.53 205.131 1087.02C205.131 1087.02 203.868 1077.34 220.503 1068.33C237.136 1059.3 251.463 1029.21 260.496 1031.49C269.528 1033.77 281.468 1041.93 281.468 1041.93L281.415 1069.62Z" fill="#163560"/>
<path d="M199.651 980.559C199.651 980.559 139.711 970.705 124.292 959.492C124.292 959.492 127.796 950.385 146.719 950.385C165.64 950.385 192.579 930.759 199.435 937.065C206.288 943.372 212.899 956.239 212.899 956.239L199.651 980.559Z" fill="#163560"/>
<path d="M281.375 1069.67C297.711 1069.15 313.059 1068.44 327.483 1067.6C546.272 1054.67 552.662 1006.03 552.662 1006.03C589.048 894.518 442.837 783.798 442.837 783.798C442.837 783.798 354.121 771.345 357.644 823.492C361.165 875.625 483.9 978.052 483.9 978.052C443.037 981.878 376.599 1004.87 331.047 1022.17C301.991 1033.23 281.427 1041.97 281.427 1041.97C281.427 1041.97 277.559 1048.6 278.127 1056.04C278.739 1064.09 281.375 1069.67 281.375 1069.67Z" fill="#163560"/>
<path d="M199.435 980.505C199.508 980.518 199.576 980.531 199.651 980.558C387.984 1031.41 454.44 1030.68 473.581 1026.85C482.072 1025.14 488.048 1012.76 488.048 1012.76C524.419 901.251 369.34 775.585 369.34 775.585C369.34 775.585 302.527 772.558 283.88 803.038C280.445 808.638 278.649 815.385 279.195 823.491C281.46 857.065 332.283 905.465 368.179 935.665C387.147 951.625 401.948 962.505 403.212 963.425L403.28 963.478C340.632 924.811 212.899 956.238 212.899 956.238C212.899 956.238 205.492 961.451 203.136 965.798C199.435 972.638 199.435 980.505 199.435 980.505Z" fill="#1C468A"/>
<path d="M133.985 396.224C136.332 404.358 151.224 454.958 164.051 493.998C171.911 517.851 179.081 537.438 182.116 540.051C184.46 542.118 193.561 547.091 206.111 553.424C223.624 562.118 248.033 573.011 270.927 581.144C285.683 586.531 299.887 590.664 311.056 592.184C315.332 593.011 319.055 593.144 322.365 593.011C342.637 591.771 343.74 569.424 341.259 551.078C340.432 545.838 339.465 540.878 338.5 537.011C337.121 531.371 335.88 527.638 335.88 527.638C335.88 527.638 332.709 526.958 327.329 525.851C317.125 523.638 298.92 519.918 278.511 516.611C258.791 513.438 237.003 510.544 218.66 509.718C218.66 509.718 208.731 491.651 196.183 469.171C181.012 441.864 162.119 408.078 153.156 393.184C152.191 391.664 151.637 390.011 151.5 388.358C146.535 392.211 140.607 395.118 133.985 396.224Z" fill="#FFB27D"/>
<path d="M437.792 402.278C439.447 406.011 441.24 409.598 442.895 413.185C442.895 413.185 438.895 422.411 433.517 435.931C433.38 436.345 433.241 436.905 432.965 437.318C432 439.518 431.173 441.865 430.208 444.345C424.69 458.691 418.347 476.211 413.659 492.611C413.52 493.171 413.244 493.718 413.107 494.265C410.073 505.158 407.59 515.638 406.762 524.051C406.212 528.611 406.212 532.465 406.625 535.771L455.996 571.225C455.996 571.225 456.27 570.251 456.824 568.318C460.96 554.531 479.025 493.585 484.679 451.238C486.196 441.038 486.886 432.078 486.472 424.905C486.472 424.905 490.472 405.451 469.235 361.611C458.34 339.131 440.827 310.438 412.831 274.585C412.831 274.585 409.808 269.478 407.048 264.385C402.773 268.651 395.697 273.211 391.146 276.518C394.532 278.025 396.972 280.931 397.524 282.865C402.764 302.998 415.589 348.785 432.413 389.465C432.413 389.465 432.413 389.598 432.552 389.745C432.69 390.291 432.965 390.838 433.241 391.385C433.38 391.811 433.655 392.211 433.792 392.771C434.757 395.251 435.861 397.731 436.965 400.211C437.24 400.905 437.516 401.598 437.792 402.278Z" fill="#FFB27D"/>
<path d="M372.613 669.024C372.613 669.024 439.381 599.758 496.491 557.624C500.396 547.064 502.52 533.024 502.52 533.024C505.725 538.878 505.228 546.424 504.173 552.091C519.688 541.158 534.193 532.651 546.084 528.584C550.083 505.344 527.727 480.931 527.727 480.931C546.931 488.718 554.715 514.331 557.263 526.064C559.325 525.904 561.247 525.958 563.016 526.251C563.016 526.251 564.945 447.798 445.103 447.798C398.473 447.798 405.155 366.784 338.783 372.598C338.783 372.598 266.301 386.758 279.833 449.971C293.364 513.184 271.128 527.344 263.399 541.518C255.669 555.678 288.532 654.851 372.613 669.024Z" fill="#AA443E"/>
<path d="M313.637 540.171L383.537 567.852L390.959 536.878C391.693 527.531 390.737 517.131 389.171 507.571C386.607 491.785 382.4 478.305 381.549 475.678C381.455 475.371 381.403 475.211 381.403 475.211L379.604 475.171L373.801 475.011L334.516 474.011C336.083 479.851 336.892 485.291 337.101 490.345C338.552 524.051 313.637 540.171 313.637 540.171Z" fill="#FFB27D"/>
<path d="M420.981 521.424C420.981 521.424 514.903 573.398 442.837 783.798L292.677 791.984C292.677 791.984 356.828 702.731 341.488 672.051C326.148 641.358 295.467 545.131 295.467 545.131L420.981 521.424Z" fill="#E5B0B4"/>
<path d="M163.969 494.385C163.969 494.385 177.048 538.358 183.332 541.865C189.632 545.371 271.975 587.638 296.933 591.038C296.933 591.038 305.659 591.931 308.748 593.411C308.748 593.411 308.748 593.411 308.759 593.425C309.264 593.638 309.623 593.905 309.759 594.185C309.78 594.211 309.8 594.278 309.831 594.371C311.597 599.025 333.707 674.345 334.22 694.331C334.589 708.265 273.195 797.865 273.92 808.038C273.984 808.945 274.195 809.771 274.541 810.531C278 818.145 294.904 817.491 308.791 810.225C316.108 806.385 329.28 800.385 344.135 795.811C360.24 790.851 378.332 787.571 393.081 790.598C421.412 796.411 450.48 789.145 460.657 757.905C470.823 726.651 469.372 662.718 472.273 649.638C475.185 636.571 477.728 595.545 460.309 568.291H460.299C460.299 568.278 460.299 568.278 460.289 568.265C460.289 568.265 458.112 563.905 461.74 554.825C465.377 545.745 491.889 450.198 487.895 421.491C487.895 421.491 486.777 393.558 469.229 361.585C469.229 361.585 458.393 364.038 449.131 372.291C439.871 380.558 433.829 389.145 432.368 389.505C432.368 389.505 442.123 411.318 441.576 413.145C441.029 414.958 407.977 508.691 406.16 514.131C406.16 514.131 393.152 512.998 390.333 515.825C390.333 515.825 391.441 542.718 330.416 520.425C330.416 520.425 326.652 519.825 326.472 522.971C326.472 522.971 247.768 510.411 220.391 508.451C220.391 508.451 218.928 508.278 210.467 492.451C200.408 473.638 196.269 469.185 196.269 469.185C196.269 469.185 171.424 469.185 163.969 494.385Z" fill="#699FF0"/>
<path d="M273.92 808.038C273.984 808.945 274.195 809.771 274.541 810.531C278 818.145 294.904 817.491 308.791 810.225C316.108 806.385 329.28 800.385 344.135 795.811C353.857 771.625 367.273 734.931 372.392 705.078C380.193 659.598 318.799 602.438 309.831 594.371C311.597 599.025 333.707 674.345 334.22 694.331C334.589 708.265 273.195 797.865 273.92 808.038Z" fill="#365DA4"/>
<path d="M337.101 490.345C337.101 490.345 369.828 506.985 389.171 507.571C386.607 491.785 382.4 478.305 381.549 475.678C380.897 475.478 380.245 475.305 379.604 475.171C378.237 474.891 376.881 474.771 375.547 474.851C374.968 474.891 374.391 474.958 373.801 475.011C357.56 476.891 337.101 490.345 337.101 490.345Z" fill="#ED975D"/>
<path d="M397.231 483.625C397.231 483.625 341.425 511.905 324.351 476.878C307.273 441.851 288.572 421.918 323.481 402.385C358.389 382.838 371.88 392.812 380.423 403.118C388.967 413.412 411.307 475.372 397.231 483.625Z" fill="#FFB27D"/>
<path d="M353.477 402.078C353.477 402.078 336.56 418.904 341.532 434.891C346.505 450.878 338.467 482.678 316.663 486.304C294.859 489.944 268.94 416.238 297.628 402.078C326.319 387.904 373.2 380.904 387.353 398.704C401.505 416.504 396.065 439.011 396.065 439.011C396.065 439.011 376.429 400.984 353.477 402.078Z" fill="#AA443E"/>
<path d="M375.728 472.038C375.728 472.038 378.021 475.812 387.977 471.865C387.977 471.865 396.335 468.558 394.611 464.158C394.611 464.158 385.299 463.665 375.728 472.038Z" fill="white"/>
<path d="M375.229 258.558C376.316 258.758 381.861 263.811 381.645 263.451C374.525 251.358 371.069 240.598 372.255 235.465C372.741 233.345 396.442 239.558 400.341 250.291C402.344 255.811 411.087 272.065 411.087 272.065L397.702 278.838C397.702 278.838 392.385 275.958 390.052 276.598C387.719 277.251 379.447 273.585 376.871 269.665C376.871 269.665 371.185 257.851 375.229 258.558Z" fill="#FFB27D"/>
<path d="M131.59 342.771C138.193 344.438 153.668 368.464 153.582 372.798C153.57 373.358 153.575 373.958 153.571 374.544C154.409 372.398 155.337 370.118 156.001 368.838C158.453 364.131 161.243 366.504 161.243 366.504C160.407 371.518 160.485 383.598 157.985 385.478C155.485 387.358 154.267 395.091 154.267 395.091L136.784 403.478C136.784 403.478 126.991 381.731 122.909 375.344C114.965 362.891 124.988 341.104 131.59 342.771Z" fill="#FFB27D"/>
<path d="M1114.2 1454.11V1488.69C1114.2 1491.44 1113.36 1494 1111.92 1496.12C1110.4 1498.36 1108.21 1500.12 1105.67 1501.11C1104.88 1501.41 1104.07 1501.65 1103.23 1501.8C1102.96 1501.84 1102.71 1501.88 1102.45 1501.92C1102.24 1501.95 1102.04 1501.96 1101.83 1501.97C1101.72 1501.99 1101.63 1501.99 1101.52 1502C1101.31 1502 1101.09 1502.01 1100.87 1502.01L550.141 1501.93C543.043 1501.93 537.195 1496.29 536.833 1489.28C536.828 1489.05 536.82 1488.83 536.819 1488.6L536.825 1454.03C536.825 1453.8 536.832 1453.57 536.84 1453.33C537.2 1446.33 543.052 1440.71 550.153 1440.71L1100.88 1440.79C1101.12 1440.79 1101.35 1440.79 1101.59 1440.81C1102.15 1440.84 1102.69 1440.91 1103.23 1441C1104.07 1441.15 1104.89 1441.37 1105.67 1441.68C1106.07 1441.84 1106.45 1442.01 1106.83 1442.2C1107.07 1442.32 1107.29 1442.44 1107.51 1442.57C1107.53 1442.57 1107.56 1442.59 1107.59 1442.61C1107.81 1442.75 1108.03 1442.88 1108.25 1443.03C1108.29 1443.05 1108.33 1443.08 1108.36 1443.11C1108.57 1443.24 1108.77 1443.39 1108.96 1443.55C1109.43 1443.89 1109.88 1444.28 1110.29 1444.69C1110.41 1444.83 1110.55 1444.96 1110.67 1445.09C1110.68 1445.11 1110.71 1445.13 1110.73 1445.16C1110.81 1445.24 1110.88 1445.32 1110.96 1445.41C1110.97 1445.43 1110.99 1445.45 1111 1445.47C1111.13 1445.61 1111.27 1445.79 1111.39 1445.95C1111.57 1446.19 1111.75 1446.43 1111.92 1446.67C1113.36 1448.8 1114.2 1451.36 1114.2 1454.11Z" fill="#FFB93E"/>
<path d="M843.76 1501.97L548.713 1501.93C542.379 1501.93 537.157 1496.29 536.833 1489.28C536.828 1489.05 536.82 1488.83 536.819 1488.6L536.825 1454.03C536.825 1453.8 536.832 1453.57 536.84 1453.33C537.164 1446.33 542.387 1440.71 548.721 1440.71L807.535 1440.75C807.64 1441.2 807.751 1441.68 807.875 1442.16C812.165 1460.01 821.843 1484.08 843.643 1501.88C843.679 1501.91 843.724 1501.95 843.76 1501.97Z" fill="#FFA412"/>
<path d="M1047.19 1502H1040.92L1040.93 1440.77H1047.2L1047.19 1502Z" fill="#FFA412"/>
<path d="M1026 1502H1019.73L1019.75 1440.77H1026V1502Z" fill="#FFA412"/>
<path d="M1000.59 1502H994.335V1440.77H1000.6L1000.59 1502Z" fill="#FFA412"/>
<path d="M961.641 1501.98H955.388L955.401 1440.77L961.655 1440.76L961.641 1501.98Z" fill="#FFA412"/>
<path d="M920.468 1501.98H914.2L914.211 1440.76H920.468V1501.98Z" fill="#FFA412"/>
<path d="M857.327 1501.97H851.064L851.075 1440.75H857.332L857.327 1501.97Z" fill="#FFA412"/>
<path d="M798.212 1501.96H791.951L791.96 1440.74H798.219L798.212 1501.96Z" fill="#FFA412"/>
<path d="M745.425 1501.96H739.165L739.175 1440.73H745.435L745.425 1501.96Z" fill="#FFA412"/>
<path d="M1067.35 1502.01L1061.09 1502L1061.11 1440.79L1067.36 1440.77L1067.35 1502.01Z" fill="#FFA412"/>
<path d="M1080.68 1502.01H1074.41L1074.43 1440.79H1080.69L1080.68 1502.01Z" fill="#FFA412"/>
<path d="M1093.55 1502.01H1087.28L1087.29 1440.79H1093.55V1502.01Z" fill="#FFA412"/>
<path d="M1103.23 1441V1501.8C1102.45 1501.93 1101.68 1502.01 1100.87 1502.01H1096.96L1096.97 1440.79H1100.88C1101.68 1440.79 1102.47 1440.85 1103.23 1441Z" fill="#FFA412"/>
<path d="M1111.92 1446.66V1496.12C1110.4 1498.36 1108.21 1500.12 1105.67 1501.1V1441.68C1108.23 1442.66 1110.4 1444.42 1111.92 1446.66Z" fill="#FFA412"/>
<path d="M1148.43 1333.17V1367.75C1148.43 1370.51 1147.59 1373.05 1146.13 1375.19C1144.63 1377.43 1142.44 1379.19 1139.88 1380.17C1139.11 1380.48 1138.28 1380.71 1137.44 1380.85C1137.19 1380.89 1136.93 1380.95 1136.67 1380.97C1136.53 1380.99 1136.39 1381 1136.24 1381.01C1136.09 1381.04 1135.95 1381.04 1135.8 1381.05C1135.57 1381.07 1135.33 1394.4 1135.09 1394.4L584.367 1380.99C577.265 1380.99 571.417 1375.36 571.059 1368.35C571.052 1368.12 571.043 1367.89 571.043 1367.67L571.047 1333.08C571.048 1332.85 571.055 1332.63 571.063 1332.4C571.425 1325.39 577.273 1319.76 584.375 1319.76L1135.11 1319.84C1135.91 1319.84 1136.69 1319.92 1137.45 1320.05C1138.29 1320.21 1139.11 1320.44 1139.89 1320.75C1142.45 1321.73 1144.63 1323.49 1146.15 1325.73C1147.59 1327.87 1148.43 1330.41 1148.43 1333.17Z" fill="#FFB93E"/>
<path d="M1081.4 1381.06H1075.15L1075.16 1319.84H1081.41L1081.4 1381.06Z" fill="#FFA412"/>
<path d="M1060.21 1381.05H1053.96L1053.97 1319.83L1060.23 1319.84L1060.21 1381.05Z" fill="#FFA412"/>
<path d="M1034.81 1381.05H1028.55L1028.56 1319.83H1034.81V1381.05Z" fill="#FFA412"/>
<path d="M995.868 1381.05H989.601L989.614 1319.83H995.881L995.868 1381.05Z" fill="#FFA412"/>
<path d="M954.681 1381.04H948.428V1319.81H954.695L954.681 1381.04Z" fill="#FFA412"/>
<path d="M891.547 1381.02L885.288 1381.04L885.297 1319.81H891.557L891.547 1381.02Z" fill="#FFA412"/>
<path d="M832.433 1381.02H826.176L826.183 1319.8H832.442L832.433 1381.02Z" fill="#FFA412"/>
<path d="M779.66 1319.79L779.648 1381.01H773.388L773.399 1319.79H779.66Z" fill="#FFA412"/>
<path d="M1101.57 1381.06H1095.32V1319.84H1101.59L1101.57 1381.06Z" fill="#FFA412"/>
<path d="M1114.89 1381.06H1108.64L1108.65 1319.84H1114.91L1114.89 1381.06Z" fill="#FFA412"/>
<path d="M1127.76 1381.06H1121.51L1121.52 1319.84H1127.77L1127.76 1381.06Z" fill="#FFA412"/>
<path d="M1137.45 1320.05L1137.44 1380.85C1136.68 1381 1135.89 1381.06 1135.09 1381.06H1131.19V1319.84H1135.11C1135.91 1319.84 1136.69 1319.92 1137.45 1320.05Z" fill="#FFA412"/>
<path d="M1146.15 1325.73L1146.13 1375.19C1144.63 1377.43 1142.44 1379.19 1139.88 1380.17L1139.89 1320.75C1142.45 1321.73 1144.63 1323.49 1146.15 1325.73Z" fill="#FFA412"/>
<path d="M1188.91 1394.3V1428.88C1188.91 1431.64 1188.07 1434.18 1186.61 1436.32C1185.09 1438.56 1182.92 1440.32 1180.36 1441.3C1179.59 1441.61 1178.77 1441.84 1177.92 1441.98C1177.16 1442.13 1176.37 1442.2 1175.57 1442.21L624.845 1442.12C622.709 1442.12 620.685 1441.61 618.893 1440.7C614.881 1438.69 612.009 1434.69 611.576 1430.02C611.56 1429.85 611.546 1429.66 611.538 1429.48C611.53 1429.25 611.524 1429.02 611.524 1428.8L611.529 1394.22C611.529 1393.98 611.536 1393.76 611.544 1393.53C611.876 1387.05 616.909 1381.74 623.281 1380.98C623.794 1380.93 624.317 1380.89 624.854 1380.89L1175.59 1380.97C1176.39 1380.98 1177.17 1381.05 1177.93 1381.2C1178.77 1381.34 1179.59 1381.57 1180.37 1381.88C1182.93 1382.86 1185.11 1384.62 1186.63 1386.86C1188.07 1389 1188.91 1391.54 1188.91 1394.3Z" fill="#FFB93E"/>
<path d="M918.468 1442.17L623.418 1442.12C621.51 1442.12 619.706 1441.61 618.106 1440.7C614.521 1438.69 611.965 1434.69 611.576 1430.02C611.56 1429.85 611.546 1429.66 611.538 1429.48C611.53 1429.25 611.524 1429.02 611.524 1428.8L611.529 1394.22C611.529 1393.98 611.536 1393.76 611.544 1393.53C611.84 1387.05 616.333 1381.74 622.021 1380.98C622.476 1380.93 622.948 1380.89 623.428 1380.89L882.241 1380.93C882.248 1380.96 882.256 1381 882.265 1381.02C886.297 1398.58 895.552 1422.65 916.774 1440.74C917.321 1441.22 917.894 1441.7 918.468 1442.17Z" fill="#FFA412"/>
<path d="M1121.89 1442.2H1115.63L1115.64 1380.97H1121.89V1442.2Z" fill="#FFA412"/>
<path d="M1100.69 1442.18H1094.44L1094.45 1380.97H1100.71L1100.69 1442.18Z" fill="#FFA412"/>
<path d="M1075.29 1442.18H1069.03L1069.04 1380.96L1075.29 1380.97V1442.18Z" fill="#FFA412"/>
<path d="M1036.35 1442.18H1030.09V1380.96H1036.36L1036.35 1442.18Z" fill="#FFA412"/>
<path d="M995.161 1442.17H988.908V1380.96L995.175 1380.94L995.161 1442.17Z" fill="#FFA412"/>
<path d="M932.028 1442.17L925.775 1442.16V1380.94H932.041L932.028 1442.17Z" fill="#FFA412"/>
<path d="M872.912 1442.16H866.656L866.664 1380.93H872.924L872.912 1442.16Z" fill="#FFA412"/>
<path d="M820.13 1442.14H813.869L813.879 1380.93H820.139L820.13 1442.14Z" fill="#FFA412"/>
<path d="M1142.05 1442.2H1135.8L1135.81 1380.97H1142.07L1142.05 1442.2Z" fill="#FFA412"/>
<path d="M1155.37 1442.2H1149.12L1149.13 1380.97H1155.39L1155.37 1442.2Z" fill="#FFA412"/>
<path d="M1168.24 1442.2H1161.99L1162 1380.97L1168.25 1380.98L1168.24 1442.2Z" fill="#FFA412"/>
<path d="M1177.93 1381.2L1177.92 1441.98C1177.16 1442.13 1176.37 1442.2 1175.57 1442.2H1171.67L1171.68 1380.97H1175.59C1176.39 1380.97 1177.17 1381.05 1177.93 1381.2Z" fill="#FFA412"/>
<path d="M1186.63 1386.86L1186.61 1436.32C1185.11 1438.56 1182.92 1440.32 1180.36 1441.3L1180.37 1381.88C1182.93 1382.86 1185.11 1384.62 1186.63 1386.86Z" fill="#FFA412"/>
<path d="M877.985 1381.02L892.056 1442.21L627.056 1442.12L623.281 1380.98H582.937C576.601 1380.98 571.381 1375.36 571.059 1368.34C571.052 1368.12 571.043 1367.89 571.043 1367.66L571.047 1333.08C571.048 1332.85 571.055 1332.62 571.063 1332.4C571.387 1325.38 576.612 1319.76 582.945 1319.76L841.76 1319.8C845.881 1337.8 855.484 1362.66 877.865 1380.93C877.901 1380.96 877.944 1381 877.985 1381.02Z" fill="#FFA412"/>
<path d="M933.948 1490.37C934.868 1501.61 949.694 1501.86 967.681 1499.65C985.668 1497.42 980.748 1501.32 1005.95 1501.48C1031.16 1501.65 1038.99 1493.81 1040.17 1490.21C1041.24 1487 1031.08 1485.54 1018.07 1482.48C1016.43 1482.1 1013.77 1480.68 1012.13 1480.28C997.455 1476.66 984.774 1468.73 975.081 1456.3C964.148 1442.29 954.148 1378.48 954.148 1378.48L914.748 1385.84C914.748 1385.84 937.681 1440.52 940.028 1458.45C941.095 1466.5 935.735 1472.44 934.401 1479.48C933.681 1483.32 933.628 1486.41 933.948 1490.37Z" fill="#AB7041"/>
<path d="M967.775 1501.46C985.761 1499.24 980.921 1502.01 1006.13 1502.18C1031.35 1502.34 1039.97 1493.94 1041.16 1490.33C1042.23 1487.13 1030.07 1484.53 1017.05 1481.46L1016.91 1481.7C1016.91 1481.7 1000.73 1490.53 979.961 1488.6C963.028 1487.04 945.708 1480.09 934.028 1478.92C933.308 1482.74 932.588 1486.66 932.921 1490.62C933.828 1501.86 949.788 1503.68 967.775 1501.46Z" fill="#163560"/>
<path d="M799.402 927.598C799.402 927.598 820.907 996.838 838.506 1067.12C840.288 1074.27 842.035 1081.43 843.716 1088.51C847.535 1104.61 851.008 1120.41 853.812 1135.05C855.024 1141.33 856.105 1147.4 857.052 1153.2C858.02 1159.2 858.843 1164.89 859.479 1170.23C860.503 1178.93 861.048 1186.65 860.981 1193.04C860.958 1194.64 860.902 1196.16 860.814 1197.59C856.817 1256.97 926.814 1432.73 926.814 1432.73C926.814 1432.73 933.575 1435.67 948.121 1433.03C957.828 1431.27 968.148 1424.43 968.148 1424.43C960.761 1392.99 951.294 1343.16 945.748 1285.2C939.441 1219.21 937.308 1162.36 940.628 1089.47C941.401 1072.25 941.708 1056.16 941.668 1041.31C941.494 978.012 935.081 936.892 932.868 924.892C925.721 886.345 799.402 927.598 799.402 927.598Z" fill="#A8D29F"/>
<path d="M799.402 927.598C799.402 927.598 820.907 996.838 838.506 1067.12C840.288 1074.26 842.035 1081.42 843.716 1088.5C847.535 1104.61 851.008 1120.41 853.812 1135.05C855.024 1141.33 856.105 1147.4 857.052 1153.2C858.02 1159.2 858.843 1164.89 859.479 1170.22L941.668 1041.3C941.494 978.011 935.081 936.891 932.868 924.891C925.721 886.345 799.402 927.598 799.402 927.598Z" fill="#82B378"/>
<path d="M773.564 1490.62C774.473 1501.86 790.34 1501.86 808.329 1499.65C826.319 1497.42 821.565 1502.01 846.777 1502.18C871.989 1502.34 880.619 1493.94 881.811 1490.33C882.876 1487.13 873.411 1485.72 860.399 1482.65C858.761 1482.26 854.421 1480.68 852.779 1480.28C838.105 1476.66 828.327 1465.77 815.724 1456.3C803.788 1447.32 812.139 1403.77 812.139 1403.77L775.093 1390.54C775.093 1390.54 780.679 1434.34 780.679 1458.45C780.679 1466.57 776.013 1471.88 774.672 1478.92C773.953 1482.74 773.239 1486.66 773.564 1490.62Z" fill="#AB7041"/>
<path d="M808.049 1501.2C826.424 1499.09 821.968 1502 847.744 1502.32C873.519 1502.64 882.288 1494.29 883.485 1490.68C884.555 1487.48 872.105 1484.8 858.784 1481.64L858.629 1481.88C858.629 1481.88 842.154 1490.62 820.904 1488.56C803.581 1486.89 785.835 1479.82 773.885 1478.58C773.175 1482.41 772.468 1486.33 772.825 1490.3C773.824 1501.56 789.671 1503.32 808.049 1501.2Z" fill="#163560"/>
<path d="M875.493 913.838C875.493 913.838 834.396 1118.67 827.453 1230.15C820.512 1341.61 811.845 1433.9 811.845 1433.9C811.845 1433.9 802.877 1437.15 792.586 1436.55C781.722 1435.93 773.108 1432.58 773.108 1432.58C773.108 1432.58 732.377 1264.87 745.868 1197.73C759.36 1130.59 748.121 1068.67 741.645 1012.99C732.358 933.132 768.086 896.025 793.029 870.732C818.276 845.118 875.493 913.838 875.493 913.838Z" fill="#A8D29F"/>
<path d="M904.62 538.705C908.701 505.359 898.288 451.999 831.73 460.519C765.174 469.052 744.201 534.452 757.624 563.545C771.047 592.625 738.301 599.639 728.021 630.905C719.189 657.772 716.112 691.145 701.821 706.105C655.745 754.385 746.054 828.612 800.497 812.959C899.661 784.439 912.436 780.185 908.913 702.278C907.11 662.358 876.052 646.879 895.772 635.332C943.415 607.439 895.378 614.159 904.62 538.705Z" fill="#2C3A64"/>
<path d="M884.47 645.785L864.784 675.318L825.12 673.358L806.799 625.998C806.799 625.998 812.45 624.932 815.081 565.878L864.589 580.972C864.589 580.972 861.959 596.372 865.467 613.132C867.903 624.825 873.262 637.305 884.47 645.785Z" fill="#AB7041"/>
<path d="M889.989 624.945C887.443 624.945 840.805 609.345 774.212 636.478C774.212 636.478 805.827 817.345 792.245 851.865C778.667 886.385 773.504 917.025 773.504 917.025L920.828 918.852C920.828 918.852 918.761 800.358 925.561 758.425C932.348 716.492 889.989 624.945 889.989 624.945Z" fill="#AB7041"/>
<path d="M774.308 837.758C775.181 834.265 775.773 831.171 776.001 828.611C777.943 806.771 774.644 788.972 769.165 771.518C769.157 771.492 769.149 771.478 769.149 771.465C769.06 771.185 768.971 770.905 768.884 770.625C768.733 770.172 768.549 769.465 768.329 768.558C768.319 768.532 768.319 768.518 768.311 768.492C768.099 767.652 767.869 766.665 767.605 765.518C767.525 765.158 767.439 764.758 767.349 764.318C763.556 747.345 755.239 704.691 753.041 698.878C752.319 696.958 751.491 693.638 750.784 689.558C748.561 676.718 747.583 656.292 755.072 647.758C765.497 635.878 801.008 626.905 801.008 626.905C808.284 638.318 833.201 666.638 864.125 661.545C882.004 658.585 884.765 623.798 884.765 623.798C903.977 626.438 908.889 629.358 908.889 629.358C908.889 629.358 954.934 658.105 1020.01 749.598C1022.07 752.505 1026.99 752.171 1039 749.838C1054.29 746.851 1085.51 747.252 1132.61 740.332C1132.61 740.332 1134.23 741.505 1134.67 746.652C1135.64 758.025 1136.79 761.385 1136.79 761.385C1136.79 761.385 1105.77 776.012 1072.79 786.452C1061.11 790.158 1048.91 793.611 1037.27 796.211C1026.43 798.638 1016.07 800.331 1007.07 800.745C1007.07 800.745 969.481 786.305 933.055 746.171C930.935 779.865 926.228 823.371 929.108 855.145C930.761 873.238 943.135 934.105 940.028 944.238C933.561 965.331 883.867 966.425 839.483 964.211C838.512 964.171 837.551 964.118 836.579 964.065C829.701 963.665 822.942 963.065 816.637 962.358C804.746 961.025 794.437 959.292 787.732 957.758C779.071 955.772 768.196 952.918 759.349 948.652C752.567 945.372 746.992 941.278 744.531 936.092C748.801 913.132 769.36 863.118 774.308 837.758Z" fill="#1C468A"/>
<path d="M870.989 896.211C862.583 924.718 857.696 948.198 836.579 964.064C829.701 963.664 822.942 963.064 816.637 962.358C804.746 961.024 794.437 959.291 787.732 957.758C779.071 955.771 768.196 952.918 759.349 948.651C752.567 945.371 746.992 941.278 744.531 936.091C748.801 913.131 769.36 863.118 774.308 837.758C774.793 835.278 775.128 833.051 775.288 831.104C777.121 808.384 774.176 789.718 769.165 771.518C769.157 771.491 769.149 771.478 769.149 771.464C768.876 770.491 768.601 769.531 768.329 768.558C768.319 768.531 768.319 768.518 768.311 768.491C768.133 767.864 767.897 766.851 767.605 765.518C767.525 765.158 767.439 764.758 767.349 764.318C763.963 748.238 755.097 697.744 752.84 691.158C752.125 689.078 751.323 685.504 750.625 681.104L768.363 664.038C768.363 664.038 870.133 707.491 892.553 767.438C914.974 827.384 883.063 855.291 870.989 896.211Z" fill="#163560"/>
<path d="M1072.79 786.452C1050.25 793.599 1025.73 799.865 1007.07 800.745C1007.07 800.745 969.161 795.092 932.508 754.345C930.961 747.412 933.174 734.759 937.681 730.185C946.574 721.159 992.961 790.759 1009.43 791.932C1021.2 792.772 1054.71 788.785 1072.79 786.452Z" fill="#163560"/>
<path d="M1136.79 761.384C1136.79 761.384 1105.77 776.011 1072.79 786.451C1061.11 790.158 1048.91 793.611 1037.27 796.211C1032.6 775.424 1035.83 759.224 1039 749.838C1054.29 746.851 1086.99 746.651 1134.08 739.744L1136.79 761.384Z" fill="#ED975D"/>
<path d="M1122.32 742.678C1122.32 742.678 1134.24 740.359 1144.16 735.385C1154.09 730.425 1180.56 727.118 1186.19 732.412C1191.81 737.705 1180.24 759.225 1156.08 759.878C1131.92 760.545 1124.97 764.519 1124.97 764.519L1122.32 742.678Z" fill="#ED975D"/>
<path d="M865.467 613.132C845.001 611.479 815.081 565.878 815.081 565.878L864.589 580.972C864.589 580.972 861.959 596.372 865.467 613.132Z" fill="#9C5F33"/>
<path d="M877.556 584.318C877.556 584.318 818.275 596.225 811.429 559.198C804.583 522.172 792.321 498.758 829.884 489.598C867.441 480.425 877.43 493.198 882.72 504.998C888.013 516.812 892.801 580.278 877.556 584.318Z" fill="#AB7041"/>
<path d="M848.585 480.344C848.585 480.344 849.625 492.905 830.128 514.225C810.632 535.545 810.77 575.491 810.77 575.491C810.77 575.491 782.421 511.771 799.951 492.051C817.48 472.331 848.585 480.344 848.585 480.344Z" fill="#2C3A64"/>
<path d="M824.749 464.011C824.749 464.011 854.221 454.144 883.468 482.958C896.065 495.371 894.163 519.784 887.413 533.944C887.413 533.944 877.052 503.598 858.187 496.984C839.324 490.358 824.749 464.011 824.749 464.011Z" fill="#2C3A64"/>
<path d="M1111.55 547.985C1014.44 560.118 945.548 648.678 957.681 745.798C969.815 842.905 1058.39 911.798 1155.49 899.665C1252.6 887.518 1321.49 798.958 1309.36 701.852C1297.23 604.732 1208.65 535.852 1111.55 547.985Z" fill="#E2810E"/>
<path d="M1096.21 549.905C999.094 562.038 930.214 650.598 942.348 747.718C954.481 844.825 1043.04 913.718 1140.16 901.571C1237.27 889.438 1306.15 800.878 1294.01 703.771C1281.88 606.651 1193.32 537.771 1096.21 549.905Z" fill="#FFB93E"/>
<path d="M1099.63 577.158C1016.55 587.545 957.401 663.558 967.774 746.625C978.161 829.705 1054.2 888.851 1137.27 878.465C1220.35 868.091 1279.47 792.051 1269.09 708.985C1258.71 625.905 1182.69 566.785 1099.63 577.158ZM1138.47 888.011C1050.13 899.051 969.268 836.158 958.241 747.825C947.201 659.491 1010.09 578.651 1098.43 567.611C1186.76 556.571 1267.6 619.451 1278.63 707.785C1289.67 796.118 1226.8 876.971 1138.47 888.011Z" fill="#FFA412"/>
<path d="M1146.31 771.558C1146.28 768.052 1145.77 764.972 1144.76 762.305C1143.76 759.638 1142.13 757.225 1139.87 755.065C1137.6 752.918 1134.69 750.932 1131.13 749.105C1127.57 747.305 1123.23 745.532 1118.09 743.812C1109.27 740.772 1101.24 737.585 1094.04 734.252C1086.83 730.918 1080.64 727.052 1075.49 722.665C1070.35 718.265 1066.33 713.118 1063.47 707.212C1060.6 701.292 1059.15 694.252 1059.09 686.065C1059.04 678.972 1060.27 672.492 1062.75 666.638C1065.23 660.785 1068.79 655.665 1073.43 651.292C1078.08 646.918 1083.65 643.358 1090.15 640.612C1096.65 637.852 1103.95 636.078 1112.03 635.278L1111.87 608.478L1133.43 608.345L1133.6 635.518C1141.33 636.465 1148.36 638.478 1154.67 641.518C1160.97 644.572 1166.35 648.545 1170.79 653.438C1175.21 658.345 1178.64 664.145 1181.07 670.852C1183.49 677.558 1184.73 685.078 1184.77 693.425L1145.83 693.665C1145.76 683.652 1143.49 676.172 1139.01 671.238C1134.53 666.292 1128.56 663.852 1121.11 663.892C1117.05 663.918 1113.57 664.505 1110.67 665.652C1107.75 666.798 1105.36 668.358 1103.48 670.332C1101.6 672.305 1100.23 674.625 1099.35 677.305C1098.47 679.985 1098.03 682.865 1098.05 685.958C1098.07 689.038 1098.53 691.838 1099.45 694.332C1100.36 696.838 1101.93 699.145 1104.15 701.252C1106.36 703.372 1109.29 705.358 1112.95 707.212C1116.6 709.065 1121.12 710.985 1126.53 712.945C1135.27 716.158 1143.21 719.438 1150.39 722.825C1157.55 726.198 1163.71 730.105 1168.85 734.545C1174.01 738.972 1178.01 744.145 1180.88 750.052C1183.76 755.972 1185.21 762.972 1185.27 771.065C1185.31 778.412 1184.07 785.025 1181.55 790.878C1179.01 796.732 1175.43 801.812 1170.79 806.092C1166.13 810.385 1160.52 813.838 1153.93 816.465C1147.35 819.105 1140 820.812 1131.92 821.612L1132.08 846.532L1110.64 846.665L1110.49 821.878C1103.03 821.172 1095.8 819.585 1088.83 817.132C1081.84 814.665 1075.64 811.092 1070.21 806.412C1064.8 801.718 1060.45 795.798 1057.17 788.638C1053.89 781.478 1052.21 772.892 1052.15 762.878L1091.11 762.638C1091.15 768.558 1092.01 773.505 1093.71 777.465C1095.39 781.412 1097.63 784.572 1100.43 786.932C1103.23 789.305 1106.41 790.945 1109.96 791.878C1113.52 792.825 1117.13 793.278 1120.83 793.252C1125.05 793.225 1128.76 792.665 1131.93 791.558C1135.12 790.452 1137.79 788.932 1139.93 786.998C1142.08 785.065 1143.68 782.785 1144.75 780.145C1145.8 777.505 1146.32 774.652 1146.31 771.558Z" fill="#FFA412"/>
<path d="M859.088 566.105C859.088 566.105 860.672 570.492 871.833 568.505C871.833 568.505 881.202 566.825 880.341 561.892C880.341 561.892 870.781 559.425 859.088 566.105Z" fill="white"/>
<path d="M898.745 806.172C908.291 787.279 904.559 770.785 899.611 760.105C914.832 757.025 944.788 755.625 985.775 749.839C987.601 748.105 992.175 743.492 992.401 740.465C992.695 736.692 1005.07 728.905 1009.65 724.785C1009.65 724.785 1013.89 726.079 1010.68 731.652C1009.81 733.159 1008.09 735.612 1006.44 737.865C1007.04 737.479 1007.64 737.092 1008.21 736.705C1012.59 733.785 1047.2 733.932 1053.2 739.572C1059.21 745.239 1043.49 769.665 1025.61 769.665C1017.89 769.665 996.428 772.625 989.815 773.572C977.241 779.199 935.241 797.425 898.745 806.172Z" fill="#AB7041"/>
<path d="M991.615 775.318C991.615 775.318 942.241 797.051 898.745 807.478C886.229 810.478 874.172 811.291 863.888 811.771C863.888 811.771 817.113 797.385 781.417 747.385C712.468 650.812 765.7 640.385 765.7 640.385C765.7 640.385 811.76 669.118 876.819 760.611C879.095 763.825 883.944 761.478 898.745 758.478C914.552 755.291 941.855 754.358 985.281 747.985C985.281 747.985 990.308 752.651 991.481 757.678C994.121 768.985 991.615 775.318 991.615 775.318Z" fill="#1C468A"/>
<path d="M2.8198 1510.52H3162.11C3163.65 1510.52 3164.93 1508.51 3164.93 1506.04C3164.93 1503.57 3163.65 1501.56 3162.11 1501.56H2.8198C1.26814 1501.56 0 1503.57 0 1506.04C0 1508.51 1.26814 1510.52 2.8198 1510.52Z" fill="#283250"/>
</svg>
